<mxfile host="app.diagrams.net" modified="2024-06-28T14:13:52.321Z" agent="Mozilla/5.0 (Windows NT 10.0; Win64; x64) AppleWebKit/537.36 (KHTML, like Gecko) Chrome/126.0.0.0 Safari/537.36" etag="28L5IbE0Wm4NHnPYx4ST" version="24.6.4" type="device">
  <diagram name="PÃ¡gina-1" id="PfPU3dS6NFUPz0BBcYqY">
    <mxGraphModel dx="3033" dy="3538" grid="1" gridSize="10" guides="0" tooltips="1" connect="1" arrows="1" fold="1" page="1" pageScale="1" pageWidth="827" pageHeight="1169" math="0" shadow="0">
      <root>
        <mxCell id="0" />
        <mxCell id="1" parent="0" />
        <mxCell id="Szb3leIw7-hetxSX2-5U-2" value="Cliente" style="rounded=1;whiteSpace=wrap;html=1;fillColor=#0050ef;strokeColor=#001DBC;fontColor=#ffffff;" parent="1" vertex="1">
          <mxGeometry x="188" y="-1850" width="90" height="30" as="geometry" />
        </mxCell>
        <mxCell id="Szb3leIw7-hetxSX2-5U-11" value="&lt;u&gt;documento&lt;/u&gt;" style="ellipse;whiteSpace=wrap;html=1;fillColor=#f5f5f5;gradientColor=#b3b3b3;strokeColor=#666666;fontColor=#000000;" parent="1" vertex="1">
          <mxGeometry x="79" y="-1870" width="70" height="20" as="geometry" />
        </mxCell>
        <mxCell id="Szb3leIw7-hetxSX2-5U-12" value="nombre" style="ellipse;whiteSpace=wrap;html=1;fillColor=#f5f5f5;gradientColor=#b3b3b3;strokeColor=#666666;fontColor=#000000;" parent="1" vertex="1">
          <mxGeometry x="79" y="-1900" width="70" height="20" as="geometry" />
        </mxCell>
        <mxCell id="Szb3leIw7-hetxSX2-5U-14" value="direccion" style="ellipse;whiteSpace=wrap;html=1;fillColor=#f5f5f5;gradientColor=#b3b3b3;strokeColor=#666666;fontColor=#000000;" parent="1" vertex="1">
          <mxGeometry x="89" y="-1920" width="70" height="20" as="geometry" />
        </mxCell>
        <mxCell id="Szb3leIw7-hetxSX2-5U-15" value="telefono" style="ellipse;whiteSpace=wrap;html=1;fillColor=#f5f5f5;gradientColor=#b3b3b3;strokeColor=#666666;fontColor=#000000;" parent="1" vertex="1">
          <mxGeometry x="99" y="-1950" width="70" height="20" as="geometry" />
        </mxCell>
        <mxCell id="Szb3leIw7-hetxSX2-5U-16" value="email" style="ellipse;whiteSpace=wrap;html=1;fillColor=#f5f5f5;gradientColor=#b3b3b3;strokeColor=#666666;fontColor=#000000;" parent="1" vertex="1">
          <mxGeometry x="159" y="-1970" width="70" height="20" as="geometry" />
        </mxCell>
        <mxCell id="Szb3leIw7-hetxSX2-5U-17" value="" style="endArrow=classic;html=1;rounded=0;entryX=1;entryY=0.5;entryDx=0;entryDy=0;exitX=0;exitY=0.25;exitDx=0;exitDy=0;" parent="1" source="Szb3leIw7-hetxSX2-5U-2" target="Szb3leIw7-hetxSX2-5U-11" edge="1">
          <mxGeometry width="50" height="50" relative="1" as="geometry">
            <mxPoint x="191" y="-1660" as="sourcePoint" />
            <mxPoint x="158" y="-1680" as="targetPoint" />
          </mxGeometry>
        </mxCell>
        <mxCell id="Szb3leIw7-hetxSX2-5U-18" value="" style="endArrow=classic;html=1;rounded=0;entryX=1;entryY=0.5;entryDx=0;entryDy=0;exitX=0;exitY=0;exitDx=0;exitDy=0;" parent="1" source="Szb3leIw7-hetxSX2-5U-2" target="Szb3leIw7-hetxSX2-5U-12" edge="1">
          <mxGeometry width="50" height="50" relative="1" as="geometry">
            <mxPoint x="198" y="-1832" as="sourcePoint" />
            <mxPoint x="168" y="-1840" as="targetPoint" />
          </mxGeometry>
        </mxCell>
        <mxCell id="Szb3leIw7-hetxSX2-5U-20" value="" style="endArrow=classic;html=1;rounded=0;entryX=1;entryY=0.5;entryDx=0;entryDy=0;exitX=0.122;exitY=0;exitDx=0;exitDy=0;exitPerimeter=0;" parent="1" source="Szb3leIw7-hetxSX2-5U-2" target="Szb3leIw7-hetxSX2-5U-14" edge="1">
          <mxGeometry width="50" height="50" relative="1" as="geometry">
            <mxPoint x="221" y="-1840" as="sourcePoint" />
            <mxPoint x="198" y="-1893" as="targetPoint" />
          </mxGeometry>
        </mxCell>
        <mxCell id="Szb3leIw7-hetxSX2-5U-21" value="" style="endArrow=classic;html=1;rounded=0;entryX=1;entryY=0.5;entryDx=0;entryDy=0;exitX=0.25;exitY=0;exitDx=0;exitDy=0;" parent="1" source="Szb3leIw7-hetxSX2-5U-2" target="Szb3leIw7-hetxSX2-5U-15" edge="1">
          <mxGeometry width="50" height="50" relative="1" as="geometry">
            <mxPoint x="243" y="-1840" as="sourcePoint" />
            <mxPoint x="243" y="-1900" as="targetPoint" />
          </mxGeometry>
        </mxCell>
        <mxCell id="Pxh_OKHmg_-3_lXB4SAX-2" style="rounded=0;orthogonalLoop=1;jettySize=auto;html=1;entryX=0.729;entryY=1.033;entryDx=0;entryDy=0;exitX=0.357;exitY=-0.089;exitDx=0;exitDy=0;exitPerimeter=0;entryPerimeter=0;" parent="1" source="Szb3leIw7-hetxSX2-5U-24" target="Pxh_OKHmg_-3_lXB4SAX-1" edge="1">
          <mxGeometry relative="1" as="geometry">
            <mxPoint x="629" y="-1860" as="sourcePoint" />
          </mxGeometry>
        </mxCell>
        <mxCell id="Szb3leIw7-hetxSX2-5U-24" value="Venta" style="rounded=1;whiteSpace=wrap;html=1;fillColor=#0050ef;strokeColor=#001DBC;fontColor=#ffffff;" parent="1" vertex="1">
          <mxGeometry x="578" y="-1850" width="90" height="30" as="geometry" />
        </mxCell>
        <mxCell id="Szb3leIw7-hetxSX2-5U-26" value="&lt;u&gt;numero&lt;/u&gt;" style="ellipse;whiteSpace=wrap;html=1;fillColor=#f5f5f5;gradientColor=#b3b3b3;strokeColor=#666666;fontColor=#000000;" parent="1" vertex="1">
          <mxGeometry x="489" y="-1860" width="71" height="20" as="geometry" />
        </mxCell>
        <mxCell id="Szb3leIw7-hetxSX2-5U-28" value="valorTotal" style="ellipse;whiteSpace=wrap;html=1;fillColor=#f5f5f5;gradientColor=#b3b3b3;strokeColor=#666666;fontColor=#000000;" parent="1" vertex="1">
          <mxGeometry x="492" y="-1935" width="70" height="20" as="geometry" />
        </mxCell>
        <mxCell id="Szb3leIw7-hetxSX2-5U-29" value="valorParcial" style="ellipse;whiteSpace=wrap;html=1;fillColor=#f5f5f5;gradientColor=#b3b3b3;strokeColor=#666666;fontColor=#000000;" parent="1" vertex="1">
          <mxGeometry x="658" y="-1760" width="70" height="20" as="geometry" />
        </mxCell>
        <mxCell id="Szb3leIw7-hetxSX2-5U-30" value="cantidad" style="ellipse;whiteSpace=wrap;html=1;fillColor=#f5f5f5;gradientColor=#b3b3b3;strokeColor=#666666;fontColor=#000000;" parent="1" vertex="1">
          <mxGeometry x="518" y="-1760" width="70" height="20" as="geometry" />
        </mxCell>
        <mxCell id="Szb3leIw7-hetxSX2-5U-32" value="" style="endArrow=classic;html=1;rounded=0;entryX=0.967;entryY=0.678;entryDx=0;entryDy=0;exitX=0;exitY=0.25;exitDx=0;exitDy=0;entryPerimeter=0;" parent="1" source="Szb3leIw7-hetxSX2-5U-24" target="Szb3leIw7-hetxSX2-5U-26" edge="1">
          <mxGeometry width="50" height="50" relative="1" as="geometry">
            <mxPoint x="588" y="-1832" as="sourcePoint" />
            <mxPoint x="558" y="-1840" as="targetPoint" />
          </mxGeometry>
        </mxCell>
        <mxCell id="Szb3leIw7-hetxSX2-5U-34" value="" style="endArrow=classic;html=1;rounded=0;entryX=1;entryY=1;entryDx=0;entryDy=0;exitX=0.25;exitY=0;exitDx=0;exitDy=0;" parent="1" source="Szb3leIw7-hetxSX2-5U-24" target="Szb3leIw7-hetxSX2-5U-28" edge="1">
          <mxGeometry width="50" height="50" relative="1" as="geometry">
            <mxPoint x="611" y="-1840" as="sourcePoint" />
            <mxPoint x="588" y="-1893" as="targetPoint" />
          </mxGeometry>
        </mxCell>
        <mxCell id="Szb3leIw7-hetxSX2-5U-35" value="" style="endArrow=classic;html=1;rounded=0;entryX=0;entryY=1;entryDx=0;entryDy=0;exitX=1;exitY=0;exitDx=0;exitDy=0;" parent="1" source="Szb3leIw7-hetxSX2-5U-60" target="Szb3leIw7-hetxSX2-5U-29" edge="1">
          <mxGeometry width="50" height="50" relative="1" as="geometry">
            <mxPoint x="633" y="-1840" as="sourcePoint" />
            <mxPoint x="633" y="-1900" as="targetPoint" />
          </mxGeometry>
        </mxCell>
        <mxCell id="Szb3leIw7-hetxSX2-5U-36" value="" style="endArrow=classic;html=1;rounded=0;entryX=1;entryY=1;entryDx=0;entryDy=0;exitX=0;exitY=0;exitDx=0;exitDy=0;" parent="1" source="Szb3leIw7-hetxSX2-5U-60" target="Szb3leIw7-hetxSX2-5U-30" edge="1">
          <mxGeometry width="50" height="50" relative="1" as="geometry">
            <mxPoint x="656" y="-1840" as="sourcePoint" />
            <mxPoint x="678" y="-1893" as="targetPoint" />
          </mxGeometry>
        </mxCell>
        <mxCell id="Szb3leIw7-hetxSX2-5U-44" value="&lt;font&gt;participa&lt;/font&gt;" style="rhombus;whiteSpace=wrap;html=1;fillColor=#dae8fc;strokeColor=#6c8ebf;" parent="1" vertex="1">
          <mxGeometry x="352" y="-1855" width="80" height="40" as="geometry" />
        </mxCell>
        <mxCell id="Szb3leIw7-hetxSX2-5U-47" value="Producto" style="rounded=1;whiteSpace=wrap;html=1;strokeColor=#001DBC;fillColor=#0050ef;fontColor=#ffffff;" parent="1" vertex="1">
          <mxGeometry x="742" y="-1675" width="90" height="30" as="geometry" />
        </mxCell>
        <mxCell id="Szb3leIw7-hetxSX2-5U-48" value="&lt;u&gt;codigo&lt;/u&gt;" style="ellipse;whiteSpace=wrap;html=1;fillColor=#f5f5f5;gradientColor=#b3b3b3;strokeColor=#666666;fontColor=#000000;" parent="1" vertex="1">
          <mxGeometry x="824" y="-1620" width="70" height="20" as="geometry" />
        </mxCell>
        <mxCell id="Szb3leIw7-hetxSX2-5U-50" value="nombre" style="ellipse;whiteSpace=wrap;html=1;fillColor=#f5f5f5;gradientColor=#b3b3b3;strokeColor=#666666;fontColor=#000000;" parent="1" vertex="1">
          <mxGeometry x="864" y="-1645" width="70" height="20" as="geometry" />
        </mxCell>
        <mxCell id="Szb3leIw7-hetxSX2-5U-51" value="stock" style="ellipse;whiteSpace=wrap;html=1;fillColor=#f5f5f5;gradientColor=#b3b3b3;strokeColor=#666666;fontColor=#000000;" parent="1" vertex="1">
          <mxGeometry x="864" y="-1670" width="70" height="20" as="geometry" />
        </mxCell>
        <mxCell id="Szb3leIw7-hetxSX2-5U-52" value="disponibilidad" style="ellipse;whiteSpace=wrap;html=1;fillColor=#f5f5f5;gradientColor=#b3b3b3;strokeColor=#666666;fontColor=#000000;" parent="1" vertex="1">
          <mxGeometry x="824" y="-1730" width="70" height="20" as="geometry" />
        </mxCell>
        <mxCell id="Szb3leIw7-hetxSX2-5U-55" value="" style="endArrow=classic;html=1;rounded=0;entryX=0;entryY=0.5;entryDx=0;entryDy=0;exitX=1;exitY=1;exitDx=0;exitDy=0;" parent="1" source="Szb3leIw7-hetxSX2-5U-47" target="Szb3leIw7-hetxSX2-5U-50" edge="1">
          <mxGeometry width="50" height="50" relative="1" as="geometry">
            <mxPoint x="775" y="-1665" as="sourcePoint" />
            <mxPoint x="752" y="-1718" as="targetPoint" />
          </mxGeometry>
        </mxCell>
        <mxCell id="Szb3leIw7-hetxSX2-5U-56" value="" style="endArrow=classic;html=1;rounded=0;entryX=0;entryY=0.5;entryDx=0;entryDy=0;" parent="1" target="Szb3leIw7-hetxSX2-5U-51" edge="1">
          <mxGeometry width="50" height="50" relative="1" as="geometry">
            <mxPoint x="834" y="-1650" as="sourcePoint" />
            <mxPoint x="797" y="-1725" as="targetPoint" />
          </mxGeometry>
        </mxCell>
        <mxCell id="Szb3leIw7-hetxSX2-5U-57" value="" style="endArrow=classic;html=1;rounded=0;entryX=0.5;entryY=1;entryDx=0;entryDy=0;exitX=1;exitY=0;exitDx=0;exitDy=0;" parent="1" source="Szb3leIw7-hetxSX2-5U-47" target="Szb3leIw7-hetxSX2-5U-52" edge="1">
          <mxGeometry width="50" height="50" relative="1" as="geometry">
            <mxPoint x="834" y="-1660" as="sourcePoint" />
            <mxPoint x="842" y="-1718" as="targetPoint" />
          </mxGeometry>
        </mxCell>
        <mxCell id="Szb3leIw7-hetxSX2-5U-58" value="precio" style="ellipse;whiteSpace=wrap;html=1;fillColor=#f5f5f5;gradientColor=#b3b3b3;strokeColor=#666666;fontColor=#000000;" parent="1" vertex="1">
          <mxGeometry x="854" y="-1700" width="70" height="20" as="geometry" />
        </mxCell>
        <mxCell id="Szb3leIw7-hetxSX2-5U-59" value="" style="endArrow=classic;html=1;rounded=0;entryX=0;entryY=1;entryDx=0;entryDy=0;exitX=1;exitY=0.5;exitDx=0;exitDy=0;" parent="1" source="Szb3leIw7-hetxSX2-5U-47" target="Szb3leIw7-hetxSX2-5U-58" edge="1">
          <mxGeometry width="50" height="50" relative="1" as="geometry">
            <mxPoint x="842" y="-1665" as="sourcePoint" />
            <mxPoint x="862" y="-1695" as="targetPoint" />
          </mxGeometry>
        </mxCell>
        <mxCell id="Ils9jEjLRas23yw1ZIoT-2" style="rounded=0;orthogonalLoop=1;jettySize=auto;html=1;exitX=0;exitY=1;exitDx=0;exitDy=0;entryX=1;entryY=0.5;entryDx=0;entryDy=0;" parent="1" source="Szb3leIw7-hetxSX2-5U-60" target="Ils9jEjLRas23yw1ZIoT-1" edge="1">
          <mxGeometry relative="1" as="geometry" />
        </mxCell>
        <mxCell id="Szb3leIw7-hetxSX2-5U-60" value="&lt;font&gt;contiene&lt;/font&gt;" style="rhombus;whiteSpace=wrap;html=1;fillColor=#dae8fc;strokeColor=#6c8ebf;" parent="1" vertex="1">
          <mxGeometry x="583" y="-1740" width="80" height="40" as="geometry" />
        </mxCell>
        <mxCell id="Szb3leIw7-hetxSX2-5U-61" value="" style="edgeStyle=orthogonalEdgeStyle;fontSize=12;html=1;endArrow=none;rounded=0;strokeWidth=2;fontColor=#FFFFFF;exitX=1;exitY=0.5;exitDx=0;exitDy=0;entryX=0.5;entryY=0;entryDx=0;entryDy=0;strokeColor=#7EA6E0;endFill=0;" parent="1" source="Szb3leIw7-hetxSX2-5U-60" target="Szb3leIw7-hetxSX2-5U-47" edge="1">
          <mxGeometry width="100" height="100" relative="1" as="geometry">
            <mxPoint x="442" y="-1825" as="sourcePoint" />
            <mxPoint x="528" y="-1825" as="targetPoint" />
          </mxGeometry>
        </mxCell>
        <mxCell id="Szb3leIw7-hetxSX2-5U-63" value="Proveedor" style="rounded=1;whiteSpace=wrap;html=1;fillColor=#0050ef;strokeColor=#001DBC;fontColor=#ffffff;" parent="1" vertex="1">
          <mxGeometry x="412" y="-1607.5" width="90" height="30" as="geometry" />
        </mxCell>
        <mxCell id="Szb3leIw7-hetxSX2-5U-64" value="&lt;u&gt;nit&lt;br&gt;&lt;/u&gt;" style="ellipse;whiteSpace=wrap;html=1;fillColor=#f5f5f5;gradientColor=#b3b3b3;strokeColor=#666666;fontColor=#000000;" parent="1" vertex="1">
          <mxGeometry x="329" y="-1665" width="70" height="20" as="geometry" />
        </mxCell>
        <mxCell id="Szb3leIw7-hetxSX2-5U-65" value="" style="endArrow=classic;html=1;rounded=0;entryX=1;entryY=1;entryDx=0;entryDy=0;exitX=0;exitY=0;exitDx=0;exitDy=0;" parent="1" source="Szb3leIw7-hetxSX2-5U-63" target="Szb3leIw7-hetxSX2-5U-64" edge="1">
          <mxGeometry width="50" height="50" relative="1" as="geometry">
            <mxPoint x="302.5" y="-1447.5" as="sourcePoint" />
            <mxPoint x="342.5" y="-1414.5" as="targetPoint" />
          </mxGeometry>
        </mxCell>
        <mxCell id="Szb3leIw7-hetxSX2-5U-66" value="nombre" style="ellipse;whiteSpace=wrap;html=1;fillColor=#f5f5f5;gradientColor=#b3b3b3;strokeColor=#666666;fontColor=#000000;" parent="1" vertex="1">
          <mxGeometry x="309.25" y="-1632.5" width="70" height="20" as="geometry" />
        </mxCell>
        <mxCell id="Szb3leIw7-hetxSX2-5U-67" value="" style="endArrow=classic;html=1;rounded=0;entryX=1;entryY=1;entryDx=0;entryDy=0;exitX=0;exitY=0.25;exitDx=0;exitDy=0;" parent="1" source="Szb3leIw7-hetxSX2-5U-63" target="Szb3leIw7-hetxSX2-5U-66" edge="1">
          <mxGeometry width="50" height="50" relative="1" as="geometry">
            <mxPoint x="447.5" y="-1597.5" as="sourcePoint" />
            <mxPoint x="437.5" y="-1627.5" as="targetPoint" />
          </mxGeometry>
        </mxCell>
        <mxCell id="Szb3leIw7-hetxSX2-5U-70" value="direccion" style="ellipse;whiteSpace=wrap;html=1;fillColor=#f5f5f5;gradientColor=#b3b3b3;strokeColor=#666666;fontColor=#000000;" parent="1" vertex="1">
          <mxGeometry x="309.25" y="-1605" width="70" height="20" as="geometry" />
        </mxCell>
        <mxCell id="Szb3leIw7-hetxSX2-5U-71" value="" style="endArrow=classic;html=1;rounded=0;entryX=1;entryY=0.5;entryDx=0;entryDy=0;exitX=0;exitY=0.5;exitDx=0;exitDy=0;" parent="1" source="Szb3leIw7-hetxSX2-5U-63" target="Szb3leIw7-hetxSX2-5U-70" edge="1">
          <mxGeometry width="50" height="50" relative="1" as="geometry">
            <mxPoint x="492.5" y="-1597.5" as="sourcePoint" />
            <mxPoint x="512.5000000000002" y="-1592.5" as="targetPoint" />
          </mxGeometry>
        </mxCell>
        <mxCell id="Szb3leIw7-hetxSX2-5U-72" value="telefono" style="ellipse;whiteSpace=wrap;html=1;fillColor=#f5f5f5;gradientColor=#b3b3b3;strokeColor=#666666;fontColor=#000000;" parent="1" vertex="1">
          <mxGeometry x="318" y="-1577.5" width="70" height="20" as="geometry" />
        </mxCell>
        <mxCell id="Szb3leIw7-hetxSX2-5U-73" value="" style="endArrow=classic;html=1;rounded=0;entryX=1;entryY=0;entryDx=0;entryDy=0;exitX=0;exitY=0.75;exitDx=0;exitDy=0;" parent="1" source="Szb3leIw7-hetxSX2-5U-63" target="Szb3leIw7-hetxSX2-5U-72" edge="1">
          <mxGeometry width="50" height="50" relative="1" as="geometry">
            <mxPoint x="492.5" y="-1582.5" as="sourcePoint" />
            <mxPoint x="512.5000000000002" y="-1567.5" as="targetPoint" />
          </mxGeometry>
        </mxCell>
        <mxCell id="pkXPHXrA7xawytac2yNt-1" value="" style="edgeStyle=orthogonalEdgeStyle;fontSize=12;html=1;endArrow=none;rounded=0;strokeWidth=2;fontColor=#FFFFFF;exitX=0.5;exitY=0;exitDx=0;exitDy=0;entryX=0.5;entryY=1;entryDx=0;entryDy=0;strokeColor=#7EA6E0;endFill=0;" parent="1" source="Szb3leIw7-hetxSX2-5U-60" target="Szb3leIw7-hetxSX2-5U-24" edge="1">
          <mxGeometry width="100" height="100" relative="1" as="geometry">
            <mxPoint x="633" y="-1690" as="sourcePoint" />
            <mxPoint x="633" y="-1605" as="targetPoint" />
          </mxGeometry>
        </mxCell>
        <mxCell id="iUWPn9aJHtTcZjFw-hrs-1" value="ruta factura" style="ellipse;whiteSpace=wrap;html=1;fillColor=#f5f5f5;gradientColor=#b3b3b3;strokeColor=#666666;fontColor=#000000;" parent="1" vertex="1">
          <mxGeometry x="679" y="-1960" width="70" height="20" as="geometry" />
        </mxCell>
        <mxCell id="iUWPn9aJHtTcZjFw-hrs-2" value="" style="endArrow=classic;html=1;rounded=0;entryX=0;entryY=1;entryDx=0;entryDy=0;exitX=0.75;exitY=0;exitDx=0;exitDy=0;" parent="1" source="Szb3leIw7-hetxSX2-5U-24" target="iUWPn9aJHtTcZjFw-hrs-1" edge="1">
          <mxGeometry width="50" height="50" relative="1" as="geometry">
            <mxPoint x="656" y="-1840" as="sourcePoint" />
            <mxPoint x="678" y="-1883" as="targetPoint" />
          </mxGeometry>
        </mxCell>
        <mxCell id="1V2tR_OCei2J_slYglTm-45" style="rounded=0;orthogonalLoop=1;jettySize=auto;html=1;exitX=0;exitY=0.75;exitDx=0;exitDy=0;entryX=1;entryY=0;entryDx=0;entryDy=0;" parent="1" source="iUWPn9aJHtTcZjFw-hrs-3" target="iUWPn9aJHtTcZjFw-hrs-9" edge="1">
          <mxGeometry relative="1" as="geometry" />
        </mxCell>
        <mxCell id="1V2tR_OCei2J_slYglTm-46" style="rounded=0;orthogonalLoop=1;jettySize=auto;html=1;exitX=0.25;exitY=1;exitDx=0;exitDy=0;entryX=1;entryY=0.5;entryDx=0;entryDy=0;" parent="1" source="iUWPn9aJHtTcZjFw-hrs-3" target="iUWPn9aJHtTcZjFw-hrs-11" edge="1">
          <mxGeometry relative="1" as="geometry" />
        </mxCell>
        <mxCell id="iUWPn9aJHtTcZjFw-hrs-3" value="Ciudad" style="rounded=1;whiteSpace=wrap;html=1;fillColor=#0050ef;strokeColor=#001DBC;fontColor=#ffffff;" parent="1" vertex="1">
          <mxGeometry x="119" y="-1620" width="90" height="30" as="geometry" />
        </mxCell>
        <mxCell id="iUWPn9aJHtTcZjFw-hrs-4" value="&lt;font&gt;reside&lt;/font&gt;" style="rhombus;whiteSpace=wrap;html=1;fillColor=#dae8fc;strokeColor=#6c8ebf;" parent="1" vertex="1">
          <mxGeometry x="193" y="-1740" width="80" height="40" as="geometry" />
        </mxCell>
        <mxCell id="iUWPn9aJHtTcZjFw-hrs-5" value="" style="edgeStyle=orthogonalEdgeStyle;fontSize=12;html=1;endArrow=none;endFill=0;rounded=0;fontColor=#FFFFFF;exitX=0.5;exitY=1;exitDx=0;exitDy=0;entryX=0.5;entryY=0;entryDx=0;entryDy=0;strokeWidth=2;strokeColor=#7EA6E0;" parent="1" source="iUWPn9aJHtTcZjFw-hrs-4" target="iUWPn9aJHtTcZjFw-hrs-3" edge="1">
          <mxGeometry width="100" height="100" relative="1" as="geometry">
            <mxPoint x="362" y="-1825" as="sourcePoint" />
            <mxPoint x="288" y="-1825" as="targetPoint" />
          </mxGeometry>
        </mxCell>
        <mxCell id="iUWPn9aJHtTcZjFw-hrs-6" value="" style="edgeStyle=orthogonalEdgeStyle;fontSize=12;html=1;endArrow=none;rounded=0;strokeWidth=2;fontColor=#FFFFFF;exitX=0.5;exitY=0;exitDx=0;exitDy=0;entryX=0.5;entryY=1;entryDx=0;entryDy=0;strokeColor=#7EA6E0;endFill=0;" parent="1" source="iUWPn9aJHtTcZjFw-hrs-4" target="Szb3leIw7-hetxSX2-5U-2" edge="1">
          <mxGeometry width="100" height="100" relative="1" as="geometry">
            <mxPoint x="442" y="-1825" as="sourcePoint" />
            <mxPoint x="528" y="-1825" as="targetPoint" />
          </mxGeometry>
        </mxCell>
        <mxCell id="iUWPn9aJHtTcZjFw-hrs-7" value="1" style="text;html=1;strokeColor=none;fillColor=none;align=center;verticalAlign=middle;whiteSpace=wrap;rounded=0;" parent="1" vertex="1">
          <mxGeometry x="144" y="-1645" width="60" height="30" as="geometry" />
        </mxCell>
        <mxCell id="iUWPn9aJHtTcZjFw-hrs-8" value="&lt;font style=&quot;font-size: 20px;&quot;&gt;*&lt;/font&gt;" style="text;html=1;strokeColor=none;fillColor=none;align=center;verticalAlign=middle;whiteSpace=wrap;rounded=0;" parent="1" vertex="1">
          <mxGeometry x="213" y="-1820" width="60" height="30" as="geometry" />
        </mxCell>
        <mxCell id="iUWPn9aJHtTcZjFw-hrs-9" value="&lt;u&gt;id&lt;/u&gt;" style="ellipse;whiteSpace=wrap;html=1;fillColor=#f5f5f5;gradientColor=#b3b3b3;strokeColor=#666666;fontColor=#000000;" parent="1" vertex="1">
          <mxGeometry x="44" y="-1577.5" width="70" height="20" as="geometry" />
        </mxCell>
        <mxCell id="iUWPn9aJHtTcZjFw-hrs-11" value="nombre" style="ellipse;whiteSpace=wrap;html=1;fillColor=#f5f5f5;gradientColor=#b3b3b3;strokeColor=#666666;fontColor=#000000;" parent="1" vertex="1">
          <mxGeometry x="44" y="-1545" width="70" height="20" as="geometry" />
        </mxCell>
        <mxCell id="iUWPn9aJHtTcZjFw-hrs-17" value="" style="edgeStyle=orthogonalEdgeStyle;fontSize=12;html=1;endArrow=none;rounded=0;strokeWidth=2;fontColor=#FFFFFF;strokeColor=#7EA6E0;endFill=0;exitX=1;exitY=0.5;exitDx=0;exitDy=0;entryX=0;entryY=0.5;entryDx=0;entryDy=0;" parent="1" source="Szb3leIw7-hetxSX2-5U-2" target="Szb3leIw7-hetxSX2-5U-44" edge="1">
          <mxGeometry width="100" height="100" relative="1" as="geometry">
            <mxPoint x="298" y="-1770" as="sourcePoint" />
            <mxPoint x="368" y="-1760" as="targetPoint" />
          </mxGeometry>
        </mxCell>
        <mxCell id="iUWPn9aJHtTcZjFw-hrs-18" value="1" style="text;html=1;strokeColor=none;fillColor=none;align=center;verticalAlign=middle;whiteSpace=wrap;rounded=0;" parent="1" vertex="1">
          <mxGeometry x="258" y="-1840" width="60" height="30" as="geometry" />
        </mxCell>
        <mxCell id="iUWPn9aJHtTcZjFw-hrs-19" value="" style="edgeStyle=orthogonalEdgeStyle;fontSize=12;html=1;endArrow=none;rounded=0;strokeWidth=2;fontColor=#FFFFFF;exitX=1;exitY=0.5;exitDx=0;exitDy=0;entryX=0;entryY=0.5;entryDx=0;entryDy=0;strokeColor=#7EA6E0;endFill=0;" parent="1" source="Szb3leIw7-hetxSX2-5U-44" target="Szb3leIw7-hetxSX2-5U-24" edge="1">
          <mxGeometry width="100" height="100" relative="1" as="geometry">
            <mxPoint x="492" y="-1835" as="sourcePoint" />
            <mxPoint x="303" y="-1810" as="targetPoint" />
          </mxGeometry>
        </mxCell>
        <mxCell id="iUWPn9aJHtTcZjFw-hrs-20" value="&lt;font style=&quot;font-size: 20px;&quot;&gt;*&lt;/font&gt;" style="text;html=1;strokeColor=none;fillColor=none;align=center;verticalAlign=middle;whiteSpace=wrap;rounded=0;" parent="1" vertex="1">
          <mxGeometry x="538" y="-1840" width="60" height="30" as="geometry" />
        </mxCell>
        <mxCell id="iUWPn9aJHtTcZjFw-hrs-21" value="&lt;font style=&quot;font-size: 20px;&quot;&gt;*&lt;/font&gt;" style="text;html=1;strokeColor=none;fillColor=none;align=center;verticalAlign=middle;whiteSpace=wrap;rounded=0;" parent="1" vertex="1">
          <mxGeometry x="572" y="-1820" width="60" height="30" as="geometry" />
        </mxCell>
        <mxCell id="iUWPn9aJHtTcZjFw-hrs-22" value="&lt;font style=&quot;font-size: 20px;&quot;&gt;*&lt;/font&gt;" style="text;html=1;align=center;verticalAlign=middle;whiteSpace=wrap;rounded=0;fillColor=none;" parent="1" vertex="1">
          <mxGeometry x="768" y="-1695" width="60" height="30" as="geometry" />
        </mxCell>
        <mxCell id="iUWPn9aJHtTcZjFw-hrs-26" value="" style="endArrow=classic;html=1;rounded=0;entryX=0.5;entryY=0;entryDx=0;entryDy=0;exitX=0.75;exitY=1;exitDx=0;exitDy=0;" parent="1" source="Szb3leIw7-hetxSX2-5U-47" target="Szb3leIw7-hetxSX2-5U-48" edge="1">
          <mxGeometry width="50" height="50" relative="1" as="geometry">
            <mxPoint x="775" y="-1635" as="sourcePoint" />
            <mxPoint x="757" y="-1570" as="targetPoint" />
          </mxGeometry>
        </mxCell>
        <mxCell id="iUWPn9aJHtTcZjFw-hrs-27" value="&lt;font&gt;ubicado&lt;/font&gt;" style="rhombus;whiteSpace=wrap;html=1;fillColor=#dae8fc;strokeColor=#6c8ebf;" parent="1" vertex="1">
          <mxGeometry x="278" y="-1510" width="80" height="40" as="geometry" />
        </mxCell>
        <mxCell id="iUWPn9aJHtTcZjFw-hrs-28" value="" style="edgeStyle=orthogonalEdgeStyle;fontSize=12;html=1;endArrow=none;endFill=0;rounded=0;fontColor=#FFFFFF;exitX=1;exitY=0.5;exitDx=0;exitDy=0;entryX=0.5;entryY=1;entryDx=0;entryDy=0;strokeWidth=2;strokeColor=#7EA6E0;" parent="1" source="iUWPn9aJHtTcZjFw-hrs-27" target="Szb3leIw7-hetxSX2-5U-63" edge="1">
          <mxGeometry width="100" height="100" relative="1" as="geometry">
            <mxPoint x="482" y="-1530" as="sourcePoint" />
            <mxPoint x="448" y="-1575" as="targetPoint" />
          </mxGeometry>
        </mxCell>
        <mxCell id="iUWPn9aJHtTcZjFw-hrs-29" value="" style="edgeStyle=orthogonalEdgeStyle;fontSize=12;html=1;endArrow=none;endFill=0;rounded=0;fontColor=#FFFFFF;exitX=0;exitY=0.5;exitDx=0;exitDy=0;entryX=1;entryY=0.5;entryDx=0;entryDy=0;strokeWidth=2;strokeColor=#7EA6E0;" parent="1" source="iUWPn9aJHtTcZjFw-hrs-27" target="iUWPn9aJHtTcZjFw-hrs-3" edge="1">
          <mxGeometry width="100" height="100" relative="1" as="geometry">
            <mxPoint x="368" y="-1450" as="sourcePoint" />
            <mxPoint x="403" y="-1590" as="targetPoint" />
            <Array as="points">
              <mxPoint x="259" y="-1490" />
              <mxPoint x="259" y="-1605" />
            </Array>
          </mxGeometry>
        </mxCell>
        <mxCell id="iUWPn9aJHtTcZjFw-hrs-30" value="&lt;font style=&quot;font-size: 20px;&quot;&gt;*&lt;/font&gt;" style="text;html=1;strokeColor=none;fillColor=none;align=center;verticalAlign=middle;whiteSpace=wrap;rounded=0;" parent="1" vertex="1">
          <mxGeometry x="417" y="-1575" width="60" height="30" as="geometry" />
        </mxCell>
        <mxCell id="iUWPn9aJHtTcZjFw-hrs-31" value="1" style="text;html=1;strokeColor=none;fillColor=none;align=center;verticalAlign=middle;whiteSpace=wrap;rounded=0;" parent="1" vertex="1">
          <mxGeometry x="188" y="-1630" width="60" height="30" as="geometry" />
        </mxCell>
        <mxCell id="6IDJ3EbofN4p_IqaLJ9K-1" value="Parametros" style="rounded=1;whiteSpace=wrap;html=1;fillColor=#d5e8d4;strokeColor=#82b366;" parent="1" vertex="1">
          <mxGeometry x="-590" y="-2100" width="90" height="30" as="geometry" />
        </mxCell>
        <mxCell id="6IDJ3EbofN4p_IqaLJ9K-2" value="&lt;u&gt;empresa_nit&lt;/u&gt;" style="ellipse;whiteSpace=wrap;html=1;fillColor=#f5f5f5;gradientColor=#b3b3b3;strokeColor=#666666;fontColor=#000000;" parent="1" vertex="1">
          <mxGeometry x="-690" y="-2000" width="80.25" height="30" as="geometry" />
        </mxCell>
        <mxCell id="6IDJ3EbofN4p_IqaLJ9K-3" value="empresa_nombre" style="ellipse;whiteSpace=wrap;html=1;fillColor=#f5f5f5;gradientColor=#b3b3b3;strokeColor=#666666;fontColor=#000000;" parent="1" vertex="1">
          <mxGeometry x="-760" y="-2030" width="92" height="30" as="geometry" />
        </mxCell>
        <mxCell id="6IDJ3EbofN4p_IqaLJ9K-5" value="numero&lt;br&gt;factura&lt;br&gt;inicial" style="ellipse;whiteSpace=wrap;html=1;fillColor=#f5f5f5;gradientColor=#b3b3b3;strokeColor=#666666;fontColor=#000000;" parent="1" vertex="1">
          <mxGeometry x="-620" y="-2220" width="109" height="50" as="geometry" />
        </mxCell>
        <mxCell id="6IDJ3EbofN4p_IqaLJ9K-6" value="" style="endArrow=classic;html=1;rounded=0;exitX=0.25;exitY=1;exitDx=0;exitDy=0;entryX=1;entryY=0.5;entryDx=0;entryDy=0;" parent="1" source="6IDJ3EbofN4p_IqaLJ9K-1" target="6IDJ3EbofN4p_IqaLJ9K-2" edge="1">
          <mxGeometry width="50" height="50" relative="1" as="geometry">
            <mxPoint x="-709.5" y="-1850" as="sourcePoint" />
            <mxPoint x="-716" y="-2014" as="targetPoint" />
          </mxGeometry>
        </mxCell>
        <mxCell id="6IDJ3EbofN4p_IqaLJ9K-7" value="" style="endArrow=classic;html=1;rounded=0;entryX=1;entryY=1;entryDx=0;entryDy=0;exitX=0;exitY=1;exitDx=0;exitDy=0;" parent="1" source="6IDJ3EbofN4p_IqaLJ9K-1" target="6IDJ3EbofN4p_IqaLJ9K-3" edge="1">
          <mxGeometry width="50" height="50" relative="1" as="geometry">
            <mxPoint x="-681.5" y="-2040" as="sourcePoint" />
            <mxPoint x="-718.5" y="-2073" as="targetPoint" />
          </mxGeometry>
        </mxCell>
        <mxCell id="Ils9jEjLRas23yw1ZIoT-1" value="descuento" style="ellipse;whiteSpace=wrap;html=1;fillColor=#f5f5f5;gradientColor=#b3b3b3;strokeColor=#666666;fontColor=#000000;" parent="1" vertex="1">
          <mxGeometry x="508" y="-1710" width="70" height="20" as="geometry" />
        </mxCell>
        <mxCell id="l5MZXlo9RL4Endg3OUP3-2" value="Puntos" style="ellipse;whiteSpace=wrap;html=1;fillColor=#f5f5f5;gradientColor=#b3b3b3;strokeColor=#666666;fontColor=#000000;" parent="1" vertex="1">
          <mxGeometry x="209" y="-1950" width="70" height="20" as="geometry" />
        </mxCell>
        <mxCell id="l5MZXlo9RL4Endg3OUP3-3" value="" style="endArrow=classic;html=1;rounded=0;entryX=0.332;entryY=1.053;entryDx=0;entryDy=0;exitX=0.5;exitY=0;exitDx=0;exitDy=0;entryPerimeter=0;" parent="1" source="Szb3leIw7-hetxSX2-5U-2" target="l5MZXlo9RL4Endg3OUP3-2" edge="1">
          <mxGeometry width="50" height="50" relative="1" as="geometry">
            <mxPoint x="259" y="-1880" as="sourcePoint" />
            <mxPoint x="293" y="-1910" as="targetPoint" />
          </mxGeometry>
        </mxCell>
        <mxCell id="XNQFGNxHQRq4NpZYo4hw-34" style="rounded=0;orthogonalLoop=1;jettySize=auto;html=1;exitX=0.25;exitY=0;exitDx=0;exitDy=0;entryX=1;entryY=1;entryDx=0;entryDy=0;" parent="1" source="XNQFGNxHQRq4NpZYo4hw-3" target="XNQFGNxHQRq4NpZYo4hw-24" edge="1">
          <mxGeometry relative="1" as="geometry" />
        </mxCell>
        <mxCell id="mK5MaRVgMIgPuESucfq4-48" style="rounded=0;orthogonalLoop=1;jettySize=auto;html=1;exitX=0;exitY=0.75;exitDx=0;exitDy=0;entryX=1;entryY=0;entryDx=0;entryDy=0;" parent="1" source="XNQFGNxHQRq4NpZYo4hw-3" target="mK5MaRVgMIgPuESucfq4-42" edge="1">
          <mxGeometry relative="1" as="geometry" />
        </mxCell>
        <mxCell id="mK5MaRVgMIgPuESucfq4-49" style="rounded=0;orthogonalLoop=1;jettySize=auto;html=1;exitX=0;exitY=1;exitDx=0;exitDy=0;entryX=1;entryY=0;entryDx=0;entryDy=0;" parent="1" source="XNQFGNxHQRq4NpZYo4hw-3" target="mK5MaRVgMIgPuESucfq4-43" edge="1">
          <mxGeometry relative="1" as="geometry" />
        </mxCell>
        <mxCell id="mK5MaRVgMIgPuESucfq4-72" style="rounded=0;orthogonalLoop=1;jettySize=auto;html=1;exitX=0;exitY=0;exitDx=0;exitDy=0;entryX=1;entryY=0.5;entryDx=0;entryDy=0;" parent="1" source="XNQFGNxHQRq4NpZYo4hw-3" target="mK5MaRVgMIgPuESucfq4-38" edge="1">
          <mxGeometry relative="1" as="geometry" />
        </mxCell>
        <mxCell id="XNQFGNxHQRq4NpZYo4hw-3" value="Pedido" style="rounded=1;whiteSpace=wrap;html=1;fillColor=#0050ef;strokeColor=#001DBC;fontColor=#ffffff;" parent="1" vertex="1">
          <mxGeometry x="565" y="-1437.5" width="90" height="30" as="geometry" />
        </mxCell>
        <mxCell id="XNQFGNxHQRq4NpZYo4hw-4" value="compone" style="rhombus;whiteSpace=wrap;html=1;fillColor=#dae8fc;strokeColor=#6c8ebf;" parent="1" vertex="1">
          <mxGeometry x="570" y="-1530" width="80" height="40" as="geometry" />
        </mxCell>
        <mxCell id="XNQFGNxHQRq4NpZYo4hw-7" value="" style="edgeStyle=orthogonalEdgeStyle;fontSize=12;html=1;endArrow=none;endFill=0;rounded=0;fontColor=#FFFFFF;exitX=0.5;exitY=0;exitDx=0;exitDy=0;entryX=1;entryY=0.5;entryDx=0;entryDy=0;strokeWidth=2;strokeColor=#7EA6E0;" parent="1" source="XNQFGNxHQRq4NpZYo4hw-4" target="Szb3leIw7-hetxSX2-5U-63" edge="1">
          <mxGeometry width="100" height="100" relative="1" as="geometry">
            <mxPoint x="368" y="-1480" as="sourcePoint" />
            <mxPoint x="422" y="-1582" as="targetPoint" />
          </mxGeometry>
        </mxCell>
        <mxCell id="XNQFGNxHQRq4NpZYo4hw-8" value="" style="edgeStyle=orthogonalEdgeStyle;fontSize=12;html=1;endArrow=none;endFill=0;rounded=0;fontColor=#FFFFFF;exitX=0.5;exitY=0;exitDx=0;exitDy=0;entryX=0.5;entryY=1;entryDx=0;entryDy=0;strokeWidth=2;strokeColor=#7EA6E0;" parent="1" source="XNQFGNxHQRq4NpZYo4hw-3" target="XNQFGNxHQRq4NpZYo4hw-4" edge="1">
          <mxGeometry width="100" height="100" relative="1" as="geometry">
            <mxPoint x="580" y="-1499.5" as="sourcePoint" />
            <mxPoint x="539" y="-1499.5" as="targetPoint" />
          </mxGeometry>
        </mxCell>
        <mxCell id="XNQFGNxHQRq4NpZYo4hw-9" value="1" style="text;html=1;strokeColor=none;fillColor=none;align=center;verticalAlign=middle;whiteSpace=wrap;rounded=0;" parent="1" vertex="1">
          <mxGeometry x="482.5" y="-1620" width="60" height="30" as="geometry" />
        </mxCell>
        <mxCell id="XNQFGNxHQRq4NpZYo4hw-10" value="&lt;font style=&quot;font-size: 20px;&quot;&gt;*&lt;/font&gt;" style="text;html=1;align=center;verticalAlign=middle;whiteSpace=wrap;rounded=0;fillColor=none;" parent="1" vertex="1">
          <mxGeometry x="593" y="-1462.5" width="60" height="30" as="geometry" />
        </mxCell>
        <mxCell id="XNQFGNxHQRq4NpZYo4hw-24" value="&lt;u&gt;numero&lt;/u&gt;" style="ellipse;whiteSpace=wrap;html=1;fillColor=#f5f5f5;gradientColor=#b3b3b3;strokeColor=#666666;fontColor=#000000;" parent="1" vertex="1">
          <mxGeometry x="482" y="-1470" width="71" height="20" as="geometry" />
        </mxCell>
        <mxCell id="mK5MaRVgMIgPuESucfq4-8" value="tiempo&lt;div&gt;inactividad&lt;/div&gt;" style="ellipse;whiteSpace=wrap;html=1;fillColor=#f5f5f5;gradientColor=#b3b3b3;strokeColor=#666666;fontColor=#000000;" parent="1" vertex="1">
          <mxGeometry x="-490" y="-2000" width="91" height="40" as="geometry" />
        </mxCell>
        <mxCell id="mK5MaRVgMIgPuESucfq4-9" value="administrador&lt;br&gt;contraseÃ±a" style="ellipse;whiteSpace=wrap;html=1;fillColor=#f5f5f5;gradientColor=#b3b3b3;strokeColor=#666666;fontColor=#000000;" parent="1" vertex="1">
          <mxGeometry x="-410" y="-2020" width="103" height="40" as="geometry" />
        </mxCell>
        <mxCell id="mK5MaRVgMIgPuESucfq4-38" value="valorTotal" style="ellipse;whiteSpace=wrap;html=1;fillColor=#f5f5f5;gradientColor=#b3b3b3;strokeColor=#666666;fontColor=#000000;" parent="1" vertex="1">
          <mxGeometry x="468" y="-1442.5" width="70" height="20" as="geometry" />
        </mxCell>
        <mxCell id="mK5MaRVgMIgPuESucfq4-42" value="ruta_acceso" style="ellipse;whiteSpace=wrap;html=1;fillColor=#f5f5f5;gradientColor=#b3b3b3;strokeColor=#666666;fontColor=#000000;" parent="1" vertex="1">
          <mxGeometry x="468" y="-1412.5" width="70" height="20" as="geometry" />
        </mxCell>
        <mxCell id="mK5MaRVgMIgPuESucfq4-43" value="pagado" style="ellipse;whiteSpace=wrap;html=1;fillColor=#f5f5f5;gradientColor=#b3b3b3;strokeColor=#666666;fontColor=#000000;" parent="1" vertex="1">
          <mxGeometry x="465.5" y="-1380" width="75" height="20" as="geometry" />
        </mxCell>
        <mxCell id="mK5MaRVgMIgPuESucfq4-82" style="rounded=0;orthogonalLoop=1;jettySize=auto;html=1;exitX=1;exitY=0;exitDx=0;exitDy=0;entryX=0;entryY=0.5;entryDx=0;entryDy=0;" parent="1" source="mK5MaRVgMIgPuESucfq4-73" target="mK5MaRVgMIgPuESucfq4-78" edge="1">
          <mxGeometry relative="1" as="geometry" />
        </mxCell>
        <mxCell id="mK5MaRVgMIgPuESucfq4-83" style="rounded=0;orthogonalLoop=1;jettySize=auto;html=1;exitX=0;exitY=0;exitDx=0;exitDy=0;entryX=1;entryY=0.5;entryDx=0;entryDy=0;" parent="1" source="mK5MaRVgMIgPuESucfq4-73" target="mK5MaRVgMIgPuESucfq4-79" edge="1">
          <mxGeometry relative="1" as="geometry" />
        </mxCell>
        <mxCell id="XH5wMNlJqR7hbEKv6Ljg-2" style="rounded=0;orthogonalLoop=1;jettySize=auto;html=1;exitX=1;exitY=1;exitDx=0;exitDy=0;entryX=0;entryY=0;entryDx=0;entryDy=0;" parent="1" source="mK5MaRVgMIgPuESucfq4-73" target="XH5wMNlJqR7hbEKv6Ljg-1" edge="1">
          <mxGeometry relative="1" as="geometry" />
        </mxCell>
        <mxCell id="mK5MaRVgMIgPuESucfq4-73" value="compone" style="rhombus;whiteSpace=wrap;html=1;fillColor=#dae8fc;strokeColor=#6c8ebf;" parent="1" vertex="1">
          <mxGeometry x="747" y="-1530" width="80" height="40" as="geometry" />
        </mxCell>
        <mxCell id="mK5MaRVgMIgPuESucfq4-74" value="" style="edgeStyle=orthogonalEdgeStyle;fontSize=12;html=1;endArrow=none;endFill=0;rounded=0;fontColor=#FFFFFF;exitX=0.5;exitY=1;exitDx=0;exitDy=0;entryX=1;entryY=0.5;entryDx=0;entryDy=0;strokeWidth=2;strokeColor=#7EA6E0;" parent="1" source="mK5MaRVgMIgPuESucfq4-73" target="XNQFGNxHQRq4NpZYo4hw-3" edge="1">
          <mxGeometry width="100" height="100" relative="1" as="geometry">
            <mxPoint x="620" y="-1397" as="sourcePoint" />
            <mxPoint x="716" y="-1350" as="targetPoint" />
          </mxGeometry>
        </mxCell>
        <mxCell id="mK5MaRVgMIgPuESucfq4-75" value="" style="edgeStyle=orthogonalEdgeStyle;fontSize=12;html=1;endArrow=none;endFill=0;rounded=0;fontColor=#FFFFFF;exitX=0.5;exitY=1;exitDx=0;exitDy=0;entryX=0.5;entryY=0;entryDx=0;entryDy=0;strokeWidth=2;strokeColor=#7EA6E0;" parent="1" source="Szb3leIw7-hetxSX2-5U-47" target="mK5MaRVgMIgPuESucfq4-73" edge="1">
          <mxGeometry width="100" height="100" relative="1" as="geometry">
            <mxPoint x="797" y="-1480" as="sourcePoint" />
            <mxPoint x="665" y="-1412" as="targetPoint" />
          </mxGeometry>
        </mxCell>
        <mxCell id="mK5MaRVgMIgPuESucfq4-76" value="&lt;font style=&quot;font-size: 20px;&quot;&gt;*&lt;/font&gt;" style="text;html=1;align=center;verticalAlign=middle;whiteSpace=wrap;rounded=0;fillColor=none;" parent="1" vertex="1">
          <mxGeometry x="638" y="-1422.5" width="60" height="30" as="geometry" />
        </mxCell>
        <mxCell id="mK5MaRVgMIgPuESucfq4-77" value="&lt;font style=&quot;font-size: 20px;&quot;&gt;*&lt;/font&gt;" style="text;html=1;align=center;verticalAlign=middle;whiteSpace=wrap;rounded=0;fillColor=none;" parent="1" vertex="1">
          <mxGeometry x="749" y="-1650" width="41" height="30" as="geometry" />
        </mxCell>
        <mxCell id="mK5MaRVgMIgPuESucfq4-78" value="valorParcial" style="ellipse;whiteSpace=wrap;html=1;fillColor=#f5f5f5;gradientColor=#b3b3b3;strokeColor=#666666;fontColor=#000000;" parent="1" vertex="1">
          <mxGeometry x="827" y="-1550" width="70" height="20" as="geometry" />
        </mxCell>
        <mxCell id="mK5MaRVgMIgPuESucfq4-79" value="cantidad" style="ellipse;whiteSpace=wrap;html=1;fillColor=#f5f5f5;gradientColor=#b3b3b3;strokeColor=#666666;fontColor=#000000;" parent="1" vertex="1">
          <mxGeometry x="677" y="-1550" width="70" height="20" as="geometry" />
        </mxCell>
        <mxCell id="Pxh_OKHmg_-3_lXB4SAX-1" value="puntos&lt;br&gt;obtenidos" style="ellipse;whiteSpace=wrap;html=1;fillColor=#f5f5f5;gradientColor=#b3b3b3;strokeColor=#666666;fontColor=#000000;" parent="1" vertex="1">
          <mxGeometry x="509" y="-1970" width="70" height="30" as="geometry" />
        </mxCell>
        <mxCell id="Pxh_OKHmg_-3_lXB4SAX-95" style="rounded=0;orthogonalLoop=1;jettySize=auto;html=1;exitX=0;exitY=0.75;exitDx=0;exitDy=0;entryX=1;entryY=0;entryDx=0;entryDy=0;" parent="1" source="Pxh_OKHmg_-3_lXB4SAX-9" target="Pxh_OKHmg_-3_lXB4SAX-89" edge="1">
          <mxGeometry relative="1" as="geometry" />
        </mxCell>
        <mxCell id="Pxh_OKHmg_-3_lXB4SAX-100" style="rounded=0;orthogonalLoop=1;jettySize=auto;html=1;exitX=0;exitY=0.5;exitDx=0;exitDy=0;entryX=0;entryY=0.5;entryDx=0;entryDy=0;" parent="1" source="Pxh_OKHmg_-3_lXB4SAX-107" edge="1" target="Pxh_OKHmg_-3_lXB4SAX-54">
          <mxGeometry relative="1" as="geometry">
            <mxPoint x="1199.2512626584708" y="-1520.8210678118658" as="targetPoint" />
          </mxGeometry>
        </mxCell>
        <mxCell id="Pxh_OKHmg_-3_lXB4SAX-9" value="EnvÃ­o" style="rounded=1;whiteSpace=wrap;html=1;fillColor=#0050ef;strokeColor=#001DBC;fontColor=#ffffff;" parent="1" vertex="1">
          <mxGeometry x="1093" y="-1585" width="90" height="30" as="geometry" />
        </mxCell>
        <mxCell id="Pxh_OKHmg_-3_lXB4SAX-10" value="&lt;font&gt;contempla&lt;/font&gt;" style="rhombus;whiteSpace=wrap;html=1;fillColor=#dae8fc;strokeColor=#6c8ebf;" parent="1" vertex="1">
          <mxGeometry x="948" y="-1765" width="80" height="40" as="geometry" />
        </mxCell>
        <mxCell id="Pxh_OKHmg_-3_lXB4SAX-11" value="" style="edgeStyle=orthogonalEdgeStyle;fontSize=12;html=1;endArrow=none;rounded=0;strokeWidth=2;fontColor=#FFFFFF;entryX=0;entryY=0.5;entryDx=0;entryDy=0;strokeColor=#7EA6E0;endFill=0;exitX=0.75;exitY=1;exitDx=0;exitDy=0;" parent="1" source="Szb3leIw7-hetxSX2-5U-24" target="Pxh_OKHmg_-3_lXB4SAX-10" edge="1">
          <mxGeometry width="100" height="100" relative="1" as="geometry">
            <mxPoint x="678" y="-1810" as="sourcePoint" />
            <mxPoint x="929" y="-1790" as="targetPoint" />
            <Array as="points">
              <mxPoint x="646" y="-1780" />
              <mxPoint x="909" y="-1780" />
              <mxPoint x="909" y="-1745" />
            </Array>
          </mxGeometry>
        </mxCell>
        <mxCell id="Pxh_OKHmg_-3_lXB4SAX-12" value="" style="edgeStyle=orthogonalEdgeStyle;fontSize=12;html=1;endArrow=none;rounded=0;strokeWidth=2;fontColor=#FFFFFF;exitX=0.5;exitY=1;exitDx=0;exitDy=0;entryX=0;entryY=0.5;entryDx=0;entryDy=0;strokeColor=#7EA6E0;endFill=0;" parent="1" source="Pxh_OKHmg_-3_lXB4SAX-10" target="Pxh_OKHmg_-3_lXB4SAX-9" edge="1">
          <mxGeometry width="100" height="100" relative="1" as="geometry">
            <mxPoint x="1009" y="-1790" as="sourcePoint" />
            <mxPoint x="1089" y="-1790" as="targetPoint" />
          </mxGeometry>
        </mxCell>
        <mxCell id="Pxh_OKHmg_-3_lXB4SAX-13" value="domicilio" style="ellipse;whiteSpace=wrap;html=1;fillColor=#f5f5f5;gradientColor=#b3b3b3;strokeColor=#666666;fontColor=#000000;" parent="1" vertex="1">
          <mxGeometry x="529" y="-1990" width="84" height="20" as="geometry" />
        </mxCell>
        <mxCell id="Pxh_OKHmg_-3_lXB4SAX-20" value="contraseÃ±a" style="ellipse;whiteSpace=wrap;html=1;fillColor=#f5f5f5;gradientColor=#b3b3b3;strokeColor=#666666;fontColor=#000000;" parent="1" vertex="1">
          <mxGeometry x="239" y="-1930" width="87.5" height="20" as="geometry" />
        </mxCell>
        <mxCell id="Pxh_OKHmg_-3_lXB4SAX-21" value="" style="endArrow=classic;html=1;rounded=0;entryX=0.206;entryY=1.026;entryDx=0;entryDy=0;exitX=0.662;exitY=-0.02;exitDx=0;exitDy=0;exitPerimeter=0;entryPerimeter=0;" parent="1" source="Szb3leIw7-hetxSX2-5U-2" target="Pxh_OKHmg_-3_lXB4SAX-20" edge="1">
          <mxGeometry width="50" height="50" relative="1" as="geometry">
            <mxPoint x="266" y="-1840" as="sourcePoint" />
            <mxPoint x="357" y="-1950" as="targetPoint" />
          </mxGeometry>
        </mxCell>
        <mxCell id="Pxh_OKHmg_-3_lXB4SAX-26" value="redencion&lt;br&gt;puntos&lt;br&gt;descuento" style="ellipse;whiteSpace=wrap;html=1;fillColor=#f5f5f5;gradientColor=#b3b3b3;strokeColor=#666666;fontColor=#000000;" parent="1" vertex="1">
          <mxGeometry x="-380" y="-2120" width="109" height="50" as="geometry" />
        </mxCell>
        <mxCell id="Pxh_OKHmg_-3_lXB4SAX-28" value="redencion&lt;br&gt;puntos&lt;br&gt;domicilio" style="ellipse;whiteSpace=wrap;html=1;fillColor=#f5f5f5;gradientColor=#b3b3b3;strokeColor=#666666;fontColor=#000000;" parent="1" vertex="1">
          <mxGeometry x="-390" y="-2070" width="109" height="50" as="geometry" />
        </mxCell>
        <mxCell id="Pxh_OKHmg_-3_lXB4SAX-81" style="rounded=0;orthogonalLoop=1;jettySize=auto;html=1;exitX=0;exitY=0.25;exitDx=0;exitDy=0;entryX=1;entryY=0.5;entryDx=0;entryDy=0;" parent="1" source="Pxh_OKHmg_-3_lXB4SAX-50" target="Pxh_OKHmg_-3_lXB4SAX-73" edge="1">
          <mxGeometry relative="1" as="geometry" />
        </mxCell>
        <mxCell id="Pxh_OKHmg_-3_lXB4SAX-82" style="rounded=0;orthogonalLoop=1;jettySize=auto;html=1;exitX=0.081;exitY=0.008;exitDx=0;exitDy=0;entryX=1;entryY=0.5;entryDx=0;entryDy=0;exitPerimeter=0;" parent="1" source="Pxh_OKHmg_-3_lXB4SAX-50" target="Pxh_OKHmg_-3_lXB4SAX-74" edge="1">
          <mxGeometry relative="1" as="geometry" />
        </mxCell>
        <mxCell id="Pxh_OKHmg_-3_lXB4SAX-83" style="rounded=0;orthogonalLoop=1;jettySize=auto;html=1;exitX=0.25;exitY=0;exitDx=0;exitDy=0;entryX=1;entryY=1;entryDx=0;entryDy=0;" parent="1" source="Pxh_OKHmg_-3_lXB4SAX-50" target="Pxh_OKHmg_-3_lXB4SAX-75" edge="1">
          <mxGeometry relative="1" as="geometry" />
        </mxCell>
        <mxCell id="Pxh_OKHmg_-3_lXB4SAX-84" style="rounded=0;orthogonalLoop=1;jettySize=auto;html=1;exitX=0.5;exitY=0;exitDx=0;exitDy=0;entryX=0.5;entryY=1;entryDx=0;entryDy=0;" parent="1" source="Pxh_OKHmg_-3_lXB4SAX-50" target="Pxh_OKHmg_-3_lXB4SAX-76" edge="1">
          <mxGeometry relative="1" as="geometry" />
        </mxCell>
        <mxCell id="Pxh_OKHmg_-3_lXB4SAX-85" style="rounded=0;orthogonalLoop=1;jettySize=auto;html=1;exitX=0.75;exitY=0;exitDx=0;exitDy=0;entryX=0;entryY=1;entryDx=0;entryDy=0;" parent="1" source="Pxh_OKHmg_-3_lXB4SAX-50" target="Pxh_OKHmg_-3_lXB4SAX-77" edge="1">
          <mxGeometry relative="1" as="geometry" />
        </mxCell>
        <mxCell id="Pxh_OKHmg_-3_lXB4SAX-86" style="rounded=0;orthogonalLoop=1;jettySize=auto;html=1;exitX=0.844;exitY=0;exitDx=0;exitDy=0;entryX=0;entryY=1;entryDx=0;entryDy=0;exitPerimeter=0;" parent="1" source="Pxh_OKHmg_-3_lXB4SAX-50" target="Pxh_OKHmg_-3_lXB4SAX-78" edge="1">
          <mxGeometry relative="1" as="geometry" />
        </mxCell>
        <mxCell id="Pxh_OKHmg_-3_lXB4SAX-87" style="rounded=0;orthogonalLoop=1;jettySize=auto;html=1;exitX=1;exitY=0;exitDx=0;exitDy=0;entryX=0;entryY=0.5;entryDx=0;entryDy=0;" parent="1" source="Pxh_OKHmg_-3_lXB4SAX-50" target="Pxh_OKHmg_-3_lXB4SAX-79" edge="1">
          <mxGeometry relative="1" as="geometry" />
        </mxCell>
        <mxCell id="Pxh_OKHmg_-3_lXB4SAX-88" style="rounded=0;orthogonalLoop=1;jettySize=auto;html=1;exitX=1;exitY=0.25;exitDx=0;exitDy=0;entryX=0;entryY=0.5;entryDx=0;entryDy=0;" parent="1" source="Pxh_OKHmg_-3_lXB4SAX-50" target="Pxh_OKHmg_-3_lXB4SAX-80" edge="1">
          <mxGeometry relative="1" as="geometry" />
        </mxCell>
        <mxCell id="Pxh_OKHmg_-3_lXB4SAX-50" value="Usuario" style="rounded=1;whiteSpace=wrap;html=1;fillColor=#0050ef;strokeColor=#001DBC;fontColor=#ffffff;" parent="1" vertex="1">
          <mxGeometry x="864" y="-2100" width="90" height="30" as="geometry" />
        </mxCell>
        <mxCell id="Pxh_OKHmg_-3_lXB4SAX-54" value="precio" style="ellipse;whiteSpace=wrap;html=1;fillColor=#f5f5f5;gradientColor=#b3b3b3;strokeColor=#666666;fontColor=#000000;" parent="1" vertex="1">
          <mxGeometry x="1199" y="-1550" width="70" height="20" as="geometry" />
        </mxCell>
        <mxCell id="Pxh_OKHmg_-3_lXB4SAX-73" value="&lt;u&gt;documento&lt;/u&gt;" style="ellipse;whiteSpace=wrap;html=1;fillColor=#f5f5f5;gradientColor=#b3b3b3;strokeColor=#666666;fontColor=#000000;" parent="1" vertex="1">
          <mxGeometry x="776" y="-2125" width="70" height="20" as="geometry" />
        </mxCell>
        <mxCell id="Pxh_OKHmg_-3_lXB4SAX-74" value="nombre" style="ellipse;whiteSpace=wrap;html=1;fillColor=#f5f5f5;gradientColor=#b3b3b3;strokeColor=#666666;fontColor=#000000;" parent="1" vertex="1">
          <mxGeometry x="779" y="-2150" width="70" height="20" as="geometry" />
        </mxCell>
        <mxCell id="Pxh_OKHmg_-3_lXB4SAX-75" value="direccion" style="ellipse;whiteSpace=wrap;html=1;fillColor=#f5f5f5;gradientColor=#b3b3b3;strokeColor=#666666;fontColor=#000000;" parent="1" vertex="1">
          <mxGeometry x="794" y="-2180" width="70" height="20" as="geometry" />
        </mxCell>
        <mxCell id="Pxh_OKHmg_-3_lXB4SAX-76" value="telefono" style="ellipse;whiteSpace=wrap;html=1;fillColor=#f5f5f5;gradientColor=#b3b3b3;strokeColor=#666666;fontColor=#000000;" parent="1" vertex="1">
          <mxGeometry x="844" y="-2200" width="70" height="20" as="geometry" />
        </mxCell>
        <mxCell id="Pxh_OKHmg_-3_lXB4SAX-77" value="email" style="ellipse;whiteSpace=wrap;html=1;fillColor=#f5f5f5;gradientColor=#b3b3b3;strokeColor=#666666;fontColor=#000000;" parent="1" vertex="1">
          <mxGeometry x="919" y="-2200" width="70" height="20" as="geometry" />
        </mxCell>
        <mxCell id="Pxh_OKHmg_-3_lXB4SAX-78" value="contraseÃ±a" style="ellipse;whiteSpace=wrap;html=1;fillColor=#f5f5f5;gradientColor=#b3b3b3;strokeColor=#666666;fontColor=#000000;" parent="1" vertex="1">
          <mxGeometry x="950.5" y="-2175" width="87.5" height="20" as="geometry" />
        </mxCell>
        <mxCell id="Pxh_OKHmg_-3_lXB4SAX-79" value="activo" style="ellipse;whiteSpace=wrap;html=1;fillColor=#f5f5f5;gradientColor=#b3b3b3;strokeColor=#666666;fontColor=#000000;" parent="1" vertex="1">
          <mxGeometry x="979" y="-2150" width="70" height="20" as="geometry" />
        </mxCell>
        <mxCell id="Pxh_OKHmg_-3_lXB4SAX-80" value="indicador sesiÃ³n" style="ellipse;whiteSpace=wrap;html=1;fillColor=#f5f5f5;gradientColor=#b3b3b3;strokeColor=#666666;fontColor=#000000;" parent="1" vertex="1">
          <mxGeometry x="979" y="-2125" width="87.5" height="35" as="geometry" />
        </mxCell>
        <mxCell id="Pxh_OKHmg_-3_lXB4SAX-89" value="&lt;u&gt;numero&lt;/u&gt;" style="ellipse;whiteSpace=wrap;html=1;fillColor=#f5f5f5;gradientColor=#b3b3b3;strokeColor=#666666;fontColor=#000000;" parent="1" vertex="1">
          <mxGeometry x="979" y="-1560" width="71" height="20" as="geometry" />
        </mxCell>
        <mxCell id="Pxh_OKHmg_-3_lXB4SAX-93" value="ruta_acceso" style="ellipse;whiteSpace=wrap;html=1;fillColor=#f5f5f5;gradientColor=#b3b3b3;strokeColor=#666666;fontColor=#000000;" parent="1" vertex="1">
          <mxGeometry x="1179" y="-1520" width="70" height="20" as="geometry" />
        </mxCell>
        <mxCell id="Pxh_OKHmg_-3_lXB4SAX-101" value="&lt;font style=&quot;font-size: 20px;&quot;&gt;*&lt;/font&gt;" style="text;html=1;align=center;verticalAlign=middle;whiteSpace=wrap;rounded=0;fillColor=none;" parent="1" vertex="1">
          <mxGeometry x="1079" y="-1580" width="15" height="12.5" as="geometry" />
        </mxCell>
        <mxCell id="Pxh_OKHmg_-3_lXB4SAX-102" value="1" style="text;html=1;strokeColor=none;fillColor=none;align=center;verticalAlign=middle;whiteSpace=wrap;rounded=0;" parent="1" vertex="1">
          <mxGeometry x="629" y="-1810" width="60" height="30" as="geometry" />
        </mxCell>
        <mxCell id="Pxh_OKHmg_-3_lXB4SAX-113" style="rounded=0;orthogonalLoop=1;jettySize=auto;html=1;exitX=1;exitY=1;exitDx=0;exitDy=0;entryX=0.5;entryY=0;entryDx=0;entryDy=0;" parent="1" source="Pxh_OKHmg_-3_lXB4SAX-103" target="Pxh_OKHmg_-3_lXB4SAX-110" edge="1">
          <mxGeometry relative="1" as="geometry" />
        </mxCell>
        <mxCell id="Pxh_OKHmg_-3_lXB4SAX-114" style="rounded=0;orthogonalLoop=1;jettySize=auto;html=1;exitX=1;exitY=0.5;exitDx=0;exitDy=0;entryX=0;entryY=0.5;entryDx=0;entryDy=0;" parent="1" source="Pxh_OKHmg_-3_lXB4SAX-103" target="Pxh_OKHmg_-3_lXB4SAX-111" edge="1">
          <mxGeometry relative="1" as="geometry" />
        </mxCell>
        <mxCell id="Pxh_OKHmg_-3_lXB4SAX-115" style="rounded=0;orthogonalLoop=1;jettySize=auto;html=1;exitX=1;exitY=0;exitDx=0;exitDy=0;entryX=0;entryY=0.5;entryDx=0;entryDy=0;" parent="1" source="Pxh_OKHmg_-3_lXB4SAX-103" target="Pxh_OKHmg_-3_lXB4SAX-112" edge="1">
          <mxGeometry relative="1" as="geometry" />
        </mxCell>
        <mxCell id="Pxh_OKHmg_-3_lXB4SAX-103" value="Empresa&lt;br&gt;Transporte" style="rounded=1;whiteSpace=wrap;html=1;fillColor=#0050ef;strokeColor=#001DBC;fontColor=#ffffff;" parent="1" vertex="1">
          <mxGeometry x="1404" y="-1512.5" width="90" height="30" as="geometry" />
        </mxCell>
        <mxCell id="Pxh_OKHmg_-3_lXB4SAX-104" value="&lt;font&gt;transporta&lt;/font&gt;" style="rhombus;whiteSpace=wrap;html=1;fillColor=#dae8fc;strokeColor=#6c8ebf;" parent="1" vertex="1">
          <mxGeometry x="1264" y="-1590" width="80" height="40" as="geometry" />
        </mxCell>
        <mxCell id="Pxh_OKHmg_-3_lXB4SAX-105" value="" style="edgeStyle=orthogonalEdgeStyle;fontSize=12;html=1;endArrow=none;rounded=0;strokeWidth=2;fontColor=#FFFFFF;exitX=0;exitY=0.5;exitDx=0;exitDy=0;entryX=1;entryY=0.5;entryDx=0;entryDy=0;strokeColor=#7EA6E0;endFill=0;" parent="1" source="Pxh_OKHmg_-3_lXB4SAX-104" target="Pxh_OKHmg_-3_lXB4SAX-9" edge="1">
          <mxGeometry width="100" height="100" relative="1" as="geometry">
            <mxPoint x="1058" y="-1705" as="sourcePoint" />
            <mxPoint x="1088" y="-1560" as="targetPoint" />
          </mxGeometry>
        </mxCell>
        <mxCell id="Pxh_OKHmg_-3_lXB4SAX-106" value="" style="edgeStyle=orthogonalEdgeStyle;fontSize=12;html=1;endArrow=none;rounded=0;strokeWidth=2;fontColor=#FFFFFF;exitX=1;exitY=0.5;exitDx=0;exitDy=0;entryX=0;entryY=0.5;entryDx=0;entryDy=0;strokeColor=#7EA6E0;endFill=0;" parent="1" source="Pxh_OKHmg_-3_lXB4SAX-104" target="Pxh_OKHmg_-3_lXB4SAX-103" edge="1">
          <mxGeometry width="100" height="100" relative="1" as="geometry">
            <mxPoint x="1274" y="-1560" as="sourcePoint" />
            <mxPoint x="1178" y="-1560" as="targetPoint" />
          </mxGeometry>
        </mxCell>
        <mxCell id="Pxh_OKHmg_-3_lXB4SAX-107" value="&lt;font style=&quot;font-size: 20px;&quot;&gt;*&lt;/font&gt;" style="text;html=1;align=center;verticalAlign=middle;whiteSpace=wrap;rounded=0;fillColor=none;" parent="1" vertex="1">
          <mxGeometry x="1168" y="-1570" width="60" height="30" as="geometry" />
        </mxCell>
        <mxCell id="Pxh_OKHmg_-3_lXB4SAX-109" value="1" style="text;html=1;strokeColor=none;fillColor=none;align=center;verticalAlign=middle;whiteSpace=wrap;rounded=0;" parent="1" vertex="1">
          <mxGeometry x="1354" y="-1497.5" width="60" height="30" as="geometry" />
        </mxCell>
        <mxCell id="Pxh_OKHmg_-3_lXB4SAX-110" value="&lt;u&gt;nit&lt;br&gt;&lt;/u&gt;" style="ellipse;whiteSpace=wrap;html=1;fillColor=#f5f5f5;gradientColor=#b3b3b3;strokeColor=#666666;fontColor=#000000;" parent="1" vertex="1">
          <mxGeometry x="1464" y="-1465" width="70" height="20" as="geometry" />
        </mxCell>
        <mxCell id="Pxh_OKHmg_-3_lXB4SAX-111" value="nombre" style="ellipse;whiteSpace=wrap;html=1;fillColor=#f5f5f5;gradientColor=#b3b3b3;strokeColor=#666666;fontColor=#000000;" parent="1" vertex="1">
          <mxGeometry x="1515" y="-1490" width="70" height="20" as="geometry" />
        </mxCell>
        <mxCell id="Pxh_OKHmg_-3_lXB4SAX-112" value="telefono" style="ellipse;whiteSpace=wrap;html=1;fillColor=#f5f5f5;gradientColor=#b3b3b3;strokeColor=#666666;fontColor=#000000;" parent="1" vertex="1">
          <mxGeometry x="1524" y="-1520" width="70" height="20" as="geometry" />
        </mxCell>
        <mxCell id="ITOS55PVCuM1q1v8-to3-1" style="edgeStyle=orthogonalEdgeStyle;rounded=0;orthogonalLoop=1;jettySize=auto;html=1;exitX=0.5;exitY=1;exitDx=0;exitDy=0;" parent="1" edge="1">
          <mxGeometry relative="1" as="geometry">
            <mxPoint x="724" y="-1885" as="sourcePoint" />
            <mxPoint x="724" y="-1885" as="targetPoint" />
          </mxGeometry>
        </mxCell>
        <mxCell id="ZesoRv7NLzSTHa5wLXWO-10" style="edgeStyle=orthogonalEdgeStyle;rounded=0;orthogonalLoop=1;jettySize=auto;html=1;exitX=0.5;exitY=0;exitDx=0;exitDy=0;entryX=0.5;entryY=1;entryDx=0;entryDy=0;" parent="1" source="ZesoRv7NLzSTHa5wLXWO-1" target="ZesoRv7NLzSTHa5wLXWO-8" edge="1">
          <mxGeometry relative="1" as="geometry" />
        </mxCell>
        <mxCell id="ZesoRv7NLzSTHa5wLXWO-11" style="rounded=0;orthogonalLoop=1;jettySize=auto;html=1;exitX=0.25;exitY=0;exitDx=0;exitDy=0;entryX=1;entryY=1;entryDx=0;entryDy=0;" parent="1" source="ZesoRv7NLzSTHa5wLXWO-1" target="ZesoRv7NLzSTHa5wLXWO-9" edge="1">
          <mxGeometry relative="1" as="geometry">
            <mxPoint x="-159.25592131942994" y="-1453.2252424524813" as="targetPoint" />
          </mxGeometry>
        </mxCell>
        <mxCell id="ZesoRv7NLzSTHa5wLXWO-1" value="Departamento" style="rounded=1;whiteSpace=wrap;html=1;fillColor=#0050ef;strokeColor=#001DBC;fontColor=#ffffff;" parent="1" vertex="1">
          <mxGeometry x="-160" y="-1427.5" width="90" height="30" as="geometry" />
        </mxCell>
        <mxCell id="ZesoRv7NLzSTHa5wLXWO-2" value="Pertenece" style="rhombus;whiteSpace=wrap;html=1;fillColor=#dae8fc;strokeColor=#6c8ebf;" parent="1" vertex="1">
          <mxGeometry x="-41" y="-1530" width="80" height="40" as="geometry" />
        </mxCell>
        <mxCell id="ZesoRv7NLzSTHa5wLXWO-3" value="" style="edgeStyle=orthogonalEdgeStyle;fontSize=12;html=1;endArrow=none;endFill=0;rounded=0;fontColor=#FFFFFF;exitX=0.5;exitY=1;exitDx=0;exitDy=0;entryX=1;entryY=0.5;entryDx=0;entryDy=0;strokeWidth=2;strokeColor=#7EA6E0;" parent="1" source="ZesoRv7NLzSTHa5wLXWO-2" target="ZesoRv7NLzSTHa5wLXWO-1" edge="1">
          <mxGeometry width="100" height="100" relative="1" as="geometry">
            <mxPoint x="288" y="-1480" as="sourcePoint" />
            <mxPoint x="219" y="-1595" as="targetPoint" />
            <Array as="points">
              <mxPoint x="-1" y="-1413" />
            </Array>
          </mxGeometry>
        </mxCell>
        <mxCell id="ZesoRv7NLzSTHa5wLXWO-5" value="" style="edgeStyle=orthogonalEdgeStyle;fontSize=12;html=1;endArrow=none;endFill=0;rounded=0;fontColor=#FFFFFF;exitX=0;exitY=0.5;exitDx=0;exitDy=0;entryX=0.5;entryY=0;entryDx=0;entryDy=0;strokeWidth=2;strokeColor=#7EA6E0;" parent="1" source="iUWPn9aJHtTcZjFw-hrs-3" target="ZesoRv7NLzSTHa5wLXWO-2" edge="1">
          <mxGeometry width="100" height="100" relative="1" as="geometry">
            <mxPoint x="9" y="-1480" as="sourcePoint" />
            <mxPoint x="-60" y="-1402" as="targetPoint" />
            <Array as="points">
              <mxPoint x="-1" y="-1605" />
            </Array>
          </mxGeometry>
        </mxCell>
        <mxCell id="ZesoRv7NLzSTHa5wLXWO-6" value="1" style="text;html=1;strokeColor=none;fillColor=none;align=center;verticalAlign=middle;whiteSpace=wrap;rounded=0;" parent="1" vertex="1">
          <mxGeometry x="-81" y="-1445" width="60" height="30" as="geometry" />
        </mxCell>
        <mxCell id="ZesoRv7NLzSTHa5wLXWO-7" value="&lt;font style=&quot;font-size: 20px;&quot;&gt;*&lt;/font&gt;" style="text;html=1;strokeColor=none;fillColor=none;align=center;verticalAlign=middle;whiteSpace=wrap;rounded=0;" parent="1" vertex="1">
          <mxGeometry x="69" y="-1637.5" width="60" height="30" as="geometry" />
        </mxCell>
        <mxCell id="ZesoRv7NLzSTHa5wLXWO-8" value="&lt;u&gt;id&lt;/u&gt;" style="ellipse;whiteSpace=wrap;html=1;fillColor=#f5f5f5;gradientColor=#b3b3b3;strokeColor=#666666;fontColor=#000000;" parent="1" vertex="1">
          <mxGeometry x="-150" y="-1490" width="70" height="20" as="geometry" />
        </mxCell>
        <mxCell id="ZesoRv7NLzSTHa5wLXWO-9" value="nombre" style="ellipse;whiteSpace=wrap;html=1;fillColor=#f5f5f5;gradientColor=#b3b3b3;strokeColor=#666666;fontColor=#000000;" parent="1" vertex="1">
          <mxGeometry x="-230" y="-1470" width="70" height="20" as="geometry" />
        </mxCell>
        <mxCell id="1V2tR_OCei2J_slYglTm-8" style="rounded=0;orthogonalLoop=1;jettySize=auto;html=1;entryX=0.638;entryY=1.111;entryDx=0;entryDy=0;entryPerimeter=0;exitX=0.456;exitY=-0.044;exitDx=0;exitDy=0;exitPerimeter=0;" parent="1" source="Szb3leIw7-hetxSX2-5U-24" target="Pxh_OKHmg_-3_lXB4SAX-13" edge="1">
          <mxGeometry relative="1" as="geometry">
            <mxPoint x="619" y="-1854" as="sourcePoint" />
            <mxPoint x="623" y="-1950" as="targetPoint" />
          </mxGeometry>
        </mxCell>
        <mxCell id="1V2tR_OCei2J_slYglTm-9" value="&lt;font&gt;coloca&lt;/font&gt;" style="rhombus;whiteSpace=wrap;html=1;fillColor=#dae8fc;strokeColor=#6c8ebf;" parent="1" vertex="1">
          <mxGeometry x="1099" y="-1740" width="80" height="40" as="geometry" />
        </mxCell>
        <mxCell id="1V2tR_OCei2J_slYglTm-13" value="" style="edgeStyle=orthogonalEdgeStyle;fontSize=12;html=1;endArrow=none;rounded=0;strokeWidth=2;fontColor=#FFFFFF;entryX=0.5;entryY=1;entryDx=0;entryDy=0;strokeColor=#7EA6E0;endFill=0;exitX=0.5;exitY=0;exitDx=0;exitDy=0;jumpStyle=arc;jumpSize=28;" parent="1" source="1V2tR_OCei2J_slYglTm-9" target="Pxh_OKHmg_-3_lXB4SAX-50" edge="1">
          <mxGeometry width="100" height="100" relative="1" as="geometry">
            <mxPoint x="1078" y="-1730" as="sourcePoint" />
            <mxPoint x="909" y="-2070" as="targetPoint" />
            <Array as="points">
              <mxPoint x="1139" y="-2030" />
              <mxPoint x="909" y="-2030" />
            </Array>
          </mxGeometry>
        </mxCell>
        <mxCell id="1V2tR_OCei2J_slYglTm-12" value="1" style="text;html=1;strokeColor=none;fillColor=none;align=center;verticalAlign=middle;whiteSpace=wrap;rounded=0;" parent="1" vertex="1">
          <mxGeometry x="889" y="-2070" width="20" height="30" as="geometry" />
        </mxCell>
        <mxCell id="1V2tR_OCei2J_slYglTm-14" value="&lt;font style=&quot;font-size: 20px;&quot;&gt;*&lt;/font&gt;" style="text;html=1;align=center;verticalAlign=middle;whiteSpace=wrap;rounded=0;fillColor=none;" parent="1" vertex="1">
          <mxGeometry x="1119" y="-1600" width="11" height="20" as="geometry" />
        </mxCell>
        <mxCell id="1V2tR_OCei2J_slYglTm-18" value="precio&lt;br&gt;domicilio" style="ellipse;whiteSpace=wrap;html=1;fillColor=#f5f5f5;gradientColor=#b3b3b3;strokeColor=#666666;fontColor=#000000;" parent="1" vertex="1">
          <mxGeometry x="49" y="-1510" width="70" height="27.5" as="geometry" />
        </mxCell>
        <mxCell id="1V2tR_OCei2J_slYglTm-21" value="" style="endArrow=classic;html=1;rounded=0;exitX=0.5;exitY=1;exitDx=0;exitDy=0;entryX=1;entryY=0.5;entryDx=0;entryDy=0;" parent="1" source="iUWPn9aJHtTcZjFw-hrs-3" target="1V2tR_OCei2J_slYglTm-18" edge="1">
          <mxGeometry width="50" height="50" relative="1" as="geometry">
            <mxPoint x="174" y="-1580" as="sourcePoint" />
            <mxPoint x="148" y="-1525" as="targetPoint" />
          </mxGeometry>
        </mxCell>
        <mxCell id="1V2tR_OCei2J_slYglTm-22" value="" style="endArrow=classic;html=1;rounded=0;entryX=0.475;entryY=1.184;entryDx=0;entryDy=0;entryPerimeter=0;" parent="1" target="Szb3leIw7-hetxSX2-5U-16" edge="1">
          <mxGeometry width="50" height="50" relative="1" as="geometry">
            <mxPoint x="221" y="-1850" as="sourcePoint" />
            <mxPoint x="179" y="-1955" as="targetPoint" />
          </mxGeometry>
        </mxCell>
        <mxCell id="1V2tR_OCei2J_slYglTm-39" style="rounded=0;orthogonalLoop=1;jettySize=auto;html=1;exitX=0.25;exitY=1;exitDx=0;exitDy=0;entryX=0.955;entryY=0.314;entryDx=0;entryDy=0;entryPerimeter=0;" parent="1" source="Pxh_OKHmg_-3_lXB4SAX-9" edge="1" target="5oVHAl8mUbuSBmOLs6Es-9">
          <mxGeometry relative="1" as="geometry">
            <mxPoint x="1103" y="-1552" as="sourcePoint" />
            <mxPoint x="1087.7487373415292" y="-1520.8210678118658" as="targetPoint" />
          </mxGeometry>
        </mxCell>
        <mxCell id="1V2tR_OCei2J_slYglTm-40" style="rounded=0;orthogonalLoop=1;jettySize=auto;html=1;exitX=0.678;exitY=0.933;exitDx=0;exitDy=0;entryX=0.5;entryY=0;entryDx=0;entryDy=0;exitPerimeter=0;" parent="1" source="Pxh_OKHmg_-3_lXB4SAX-9" target="Pxh_OKHmg_-3_lXB4SAX-93" edge="1">
          <mxGeometry relative="1" as="geometry">
            <mxPoint x="1126" y="-1545" as="sourcePoint" />
            <mxPoint x="1098" y="-1511" as="targetPoint" />
          </mxGeometry>
        </mxCell>
        <mxCell id="1V2tR_OCei2J_slYglTm-50" value="1" style="text;html=1;strokeColor=none;fillColor=none;align=center;verticalAlign=middle;whiteSpace=wrap;rounded=0;" parent="1" vertex="1">
          <mxGeometry x="169" y="-1587.5" width="60" height="30" as="geometry" />
        </mxCell>
        <mxCell id="q95GG_RReeLjOTTYheSR-2" value="recaudada" style="ellipse;whiteSpace=wrap;html=1;fillColor=#f5f5f5;gradientColor=#b3b3b3;strokeColor=#666666;fontColor=#000000;" parent="1" vertex="1">
          <mxGeometry x="699" y="-1935" width="70" height="20" as="geometry" />
        </mxCell>
        <mxCell id="q95GG_RReeLjOTTYheSR-3" value="" style="endArrow=classic;html=1;rounded=0;entryX=0;entryY=0.5;entryDx=0;entryDy=0;" parent="1" target="q95GG_RReeLjOTTYheSR-2" edge="1">
          <mxGeometry width="50" height="50" relative="1" as="geometry">
            <mxPoint x="656" y="-1850" as="sourcePoint" />
            <mxPoint x="668" y="-1943" as="targetPoint" />
          </mxGeometry>
        </mxCell>
        <mxCell id="SBcBwmIU_k-8WzzmSoJo-2" style="rounded=0;orthogonalLoop=1;jettySize=auto;html=1;exitX=0.25;exitY=1;exitDx=0;exitDy=0;entryX=1.071;entryY=0.237;entryDx=0;entryDy=0;entryPerimeter=0;" parent="1" edge="1" target="3PmhoJ4yJODrcaeQDymi-168" source="Pxh_OKHmg_-3_lXB4SAX-9">
          <mxGeometry relative="1" as="geometry">
            <mxPoint x="1126" y="-1545" as="sourcePoint" />
            <mxPoint x="1124.2487373415292" y="-1489.5710678118653" as="targetPoint" />
          </mxGeometry>
        </mxCell>
        <mxCell id="XH5wMNlJqR7hbEKv6Ljg-1" value="costo" style="ellipse;whiteSpace=wrap;html=1;fillColor=#f5f5f5;gradientColor=#b3b3b3;strokeColor=#666666;fontColor=#000000;" parent="1" vertex="1">
          <mxGeometry x="824" y="-1477.5" width="70" height="20" as="geometry" />
        </mxCell>
        <mxCell id="XH5wMNlJqR7hbEKv6Ljg-3" value="plazo&lt;br&gt;pago" style="ellipse;whiteSpace=wrap;html=1;fillColor=#f5f5f5;gradientColor=#b3b3b3;strokeColor=#666666;fontColor=#000000;" parent="1" vertex="1">
          <mxGeometry x="515.5" y="-1350" width="75" height="30" as="geometry" />
        </mxCell>
        <mxCell id="XH5wMNlJqR7hbEKv6Ljg-4" style="rounded=0;orthogonalLoop=1;jettySize=auto;html=1;exitX=0.25;exitY=1;exitDx=0;exitDy=0;entryX=0.5;entryY=0;entryDx=0;entryDy=0;" parent="1" source="XNQFGNxHQRq4NpZYo4hw-3" target="XH5wMNlJqR7hbEKv6Ljg-3" edge="1">
          <mxGeometry relative="1" as="geometry">
            <mxPoint x="575" y="-1397" as="sourcePoint" />
            <mxPoint x="539" y="-1367" as="targetPoint" />
          </mxGeometry>
        </mxCell>
        <mxCell id="XH5wMNlJqR7hbEKv6Ljg-5" value="plazo&lt;br&gt;recaudo" style="ellipse;whiteSpace=wrap;html=1;fillColor=#f5f5f5;gradientColor=#b3b3b3;strokeColor=#666666;fontColor=#000000;" parent="1" vertex="1">
          <mxGeometry x="699" y="-1910" width="70" height="25" as="geometry" />
        </mxCell>
        <mxCell id="XH5wMNlJqR7hbEKv6Ljg-6" value="" style="endArrow=classic;html=1;rounded=0;entryX=0;entryY=0.5;entryDx=0;entryDy=0;exitX=1;exitY=0;exitDx=0;exitDy=0;" parent="1" source="Szb3leIw7-hetxSX2-5U-24" target="XH5wMNlJqR7hbEKv6Ljg-5" edge="1">
          <mxGeometry width="50" height="50" relative="1" as="geometry">
            <mxPoint x="666" y="-1840" as="sourcePoint" />
            <mxPoint x="692" y="-1915" as="targetPoint" />
          </mxGeometry>
        </mxCell>
        <mxCell id="5oVHAl8mUbuSBmOLs6Es-2" value="" style="edgeStyle=orthogonalEdgeStyle;fontSize=12;html=1;endArrow=none;endFill=0;rounded=0;fontColor=#FFFFFF;exitX=0;exitY=0.5;exitDx=0;exitDy=0;entryX=1;entryY=0.75;entryDx=0;entryDy=0;strokeWidth=2;strokeColor=#7EA6E0;" parent="1" source="5oVHAl8mUbuSBmOLs6Es-3" target="iUWPn9aJHtTcZjFw-hrs-3" edge="1">
          <mxGeometry width="100" height="100" relative="1" as="geometry">
            <mxPoint x="288" y="-1480" as="sourcePoint" />
            <mxPoint x="219" y="-1595" as="targetPoint" />
            <Array as="points">
              <mxPoint x="239" y="-1270" />
              <mxPoint x="239" y="-1595" />
              <mxPoint x="209" y="-1595" />
            </Array>
          </mxGeometry>
        </mxCell>
        <mxCell id="5oVHAl8mUbuSBmOLs6Es-3" value="va hacia" style="rhombus;whiteSpace=wrap;html=1;fillColor=#dae8fc;strokeColor=#6c8ebf;" parent="1" vertex="1">
          <mxGeometry x="397" y="-1290" width="80" height="40" as="geometry" />
        </mxCell>
        <mxCell id="5oVHAl8mUbuSBmOLs6Es-4" value="" style="edgeStyle=orthogonalEdgeStyle;fontSize=12;html=1;endArrow=none;endFill=0;rounded=0;fontColor=#FFFFFF;entryX=1;entryY=0.5;entryDx=0;entryDy=0;strokeWidth=2;strokeColor=#7EA6E0;exitX=0.5;exitY=1;exitDx=0;exitDy=0;" parent="1" source="Pxh_OKHmg_-3_lXB4SAX-9" target="5oVHAl8mUbuSBmOLs6Es-3" edge="1">
          <mxGeometry width="100" height="100" relative="1" as="geometry">
            <mxPoint x="1249" y="-1680" as="sourcePoint" />
            <mxPoint x="219" y="-1587" as="targetPoint" />
            <Array as="points">
              <mxPoint x="1139" y="-1555" />
              <mxPoint x="1139" y="-1270" />
            </Array>
          </mxGeometry>
        </mxCell>
        <mxCell id="5oVHAl8mUbuSBmOLs6Es-5" value="&lt;font style=&quot;font-size: 20px;&quot;&gt;*&lt;/font&gt;" style="text;html=1;align=center;verticalAlign=middle;whiteSpace=wrap;rounded=0;fillColor=none;" parent="1" vertex="1">
          <mxGeometry x="1119" y="-1550" width="60" height="30" as="geometry" />
        </mxCell>
        <mxCell id="5oVHAl8mUbuSBmOLs6Es-9" value="documento&lt;div&gt;destinatario&lt;/div&gt;" style="ellipse;whiteSpace=wrap;html=1;fillColor=#f5f5f5;gradientColor=#b3b3b3;strokeColor=#666666;fontColor=#000000;" parent="1" vertex="1">
          <mxGeometry x="979" y="-1540" width="70" height="40" as="geometry" />
        </mxCell>
        <mxCell id="5oVHAl8mUbuSBmOLs6Es-10" value="nombre" style="ellipse;whiteSpace=wrap;html=1;fillColor=#f5f5f5;gradientColor=#b3b3b3;strokeColor=#666666;fontColor=#000000;" parent="1" vertex="1">
          <mxGeometry x="1179" y="-1620" width="70" height="20" as="geometry" />
        </mxCell>
        <mxCell id="5oVHAl8mUbuSBmOLs6Es-11" value="telefono" style="ellipse;whiteSpace=wrap;html=1;fillColor=#f5f5f5;gradientColor=#b3b3b3;strokeColor=#666666;fontColor=#000000;" parent="1" vertex="1">
          <mxGeometry x="1019" y="-1630" width="70" height="20" as="geometry" />
        </mxCell>
        <mxCell id="5oVHAl8mUbuSBmOLs6Es-12" value="observaciones" style="ellipse;whiteSpace=wrap;html=1;fillColor=#f5f5f5;gradientColor=#b3b3b3;strokeColor=#666666;fontColor=#000000;" parent="1" vertex="1">
          <mxGeometry x="1029" y="-1660" width="74" height="20" as="geometry" />
        </mxCell>
        <mxCell id="5oVHAl8mUbuSBmOLs6Es-13" value="salio" style="ellipse;whiteSpace=wrap;html=1;fillColor=#f5f5f5;gradientColor=#b3b3b3;strokeColor=#666666;fontColor=#000000;" parent="1" vertex="1">
          <mxGeometry x="1179" y="-1640" width="60" height="20" as="geometry" />
        </mxCell>
        <mxCell id="5oVHAl8mUbuSBmOLs6Es-20" style="rounded=0;orthogonalLoop=1;jettySize=auto;html=1;exitX=0.5;exitY=0;exitDx=0;exitDy=0;entryX=0.5;entryY=1;entryDx=0;entryDy=0;" parent="1" source="5oVHAl8mUbuSBmOLs6Es-22" target="5oVHAl8mUbuSBmOLs6Es-21" edge="1">
          <mxGeometry relative="1" as="geometry" />
        </mxCell>
        <mxCell id="5oVHAl8mUbuSBmOLs6Es-21" value="&lt;u&gt;numero&lt;/u&gt;" style="ellipse;whiteSpace=wrap;html=1;fillColor=#f5f5f5;gradientColor=#b3b3b3;strokeColor=#666666;fontColor=#000000;" parent="1" vertex="1">
          <mxGeometry x="968" y="-2010" width="71" height="20" as="geometry" />
        </mxCell>
        <mxCell id="5oVHAl8mUbuSBmOLs6Es-22" value="RedencionPuntos" style="rounded=1;whiteSpace=wrap;html=1;fillColor=#0050ef;strokeColor=#001DBC;fontColor=#ffffff;" parent="1" vertex="1">
          <mxGeometry x="968" y="-1950" width="99" height="30" as="geometry" />
        </mxCell>
        <mxCell id="5oVHAl8mUbuSBmOLs6Es-23" value="cantidad&lt;br&gt;redimida" style="ellipse;whiteSpace=wrap;html=1;fillColor=#f5f5f5;gradientColor=#b3b3b3;strokeColor=#666666;fontColor=#000000;" parent="1" vertex="1">
          <mxGeometry x="868" y="-2010" width="89" height="30" as="geometry" />
        </mxCell>
        <mxCell id="5oVHAl8mUbuSBmOLs6Es-24" value="descuento" style="ellipse;whiteSpace=wrap;html=1;fillColor=#f5f5f5;gradientColor=#b3b3b3;strokeColor=#666666;fontColor=#000000;" parent="1" vertex="1">
          <mxGeometry x="854.5" y="-1965" width="89" height="30" as="geometry" />
        </mxCell>
        <mxCell id="5oVHAl8mUbuSBmOLs6Es-25" style="rounded=0;orthogonalLoop=1;jettySize=auto;html=1;exitX=0;exitY=0.25;exitDx=0;exitDy=0;entryX=1;entryY=0.5;entryDx=0;entryDy=0;" parent="1" source="5oVHAl8mUbuSBmOLs6Es-22" target="5oVHAl8mUbuSBmOLs6Es-24" edge="1">
          <mxGeometry relative="1" as="geometry" />
        </mxCell>
        <mxCell id="5oVHAl8mUbuSBmOLs6Es-26" style="rounded=0;orthogonalLoop=1;jettySize=auto;html=1;exitX=0.25;exitY=0;exitDx=0;exitDy=0;entryX=1;entryY=1;entryDx=0;entryDy=0;" parent="1" source="5oVHAl8mUbuSBmOLs6Es-22" target="5oVHAl8mUbuSBmOLs6Es-23" edge="1">
          <mxGeometry relative="1" as="geometry" />
        </mxCell>
        <mxCell id="5oVHAl8mUbuSBmOLs6Es-27" value="sucede" style="rhombus;whiteSpace=wrap;html=1;fillColor=#dae8fc;strokeColor=#6c8ebf;" parent="1" vertex="1">
          <mxGeometry x="832" y="-1855" width="80" height="40" as="geometry" />
        </mxCell>
        <mxCell id="5oVHAl8mUbuSBmOLs6Es-28" value="" style="edgeStyle=orthogonalEdgeStyle;fontSize=12;html=1;endArrow=none;rounded=0;strokeWidth=2;fontColor=#FFFFFF;entryX=0;entryY=0.5;entryDx=0;entryDy=0;strokeColor=#7EA6E0;endFill=0;exitX=1;exitY=0.5;exitDx=0;exitDy=0;" parent="1" source="Szb3leIw7-hetxSX2-5U-24" target="5oVHAl8mUbuSBmOLs6Es-27" edge="1">
          <mxGeometry width="100" height="100" relative="1" as="geometry">
            <mxPoint x="678" y="-1810" as="sourcePoint" />
            <mxPoint x="929" y="-1790" as="targetPoint" />
            <Array as="points" />
          </mxGeometry>
        </mxCell>
        <mxCell id="5oVHAl8mUbuSBmOLs6Es-29" value="" style="edgeStyle=orthogonalEdgeStyle;fontSize=12;html=1;endArrow=none;rounded=0;strokeWidth=2;fontColor=#FFFFFF;entryX=0.5;entryY=1;entryDx=0;entryDy=0;strokeColor=#7EA6E0;endFill=0;exitX=1;exitY=0.5;exitDx=0;exitDy=0;" parent="1" source="5oVHAl8mUbuSBmOLs6Es-27" target="5oVHAl8mUbuSBmOLs6Es-22" edge="1">
          <mxGeometry width="100" height="100" relative="1" as="geometry">
            <mxPoint x="678" y="-1825" as="sourcePoint" />
            <mxPoint x="842" y="-1825" as="targetPoint" />
            <Array as="points" />
          </mxGeometry>
        </mxCell>
        <mxCell id="5oVHAl8mUbuSBmOLs6Es-30" value="1" style="text;html=1;strokeColor=none;fillColor=none;align=center;verticalAlign=middle;whiteSpace=wrap;rounded=0;" parent="1" vertex="1">
          <mxGeometry x="658.25" y="-1865" width="60" height="30" as="geometry" />
        </mxCell>
        <mxCell id="5oVHAl8mUbuSBmOLs6Es-31" value="&lt;font style=&quot;font-size: 20px;&quot;&gt;*&lt;/font&gt;" style="text;html=1;strokeColor=none;fillColor=none;align=center;verticalAlign=middle;whiteSpace=wrap;rounded=0;" parent="1" vertex="1">
          <mxGeometry x="973" y="-1920" width="60" height="30" as="geometry" />
        </mxCell>
        <mxCell id="qWIG7F0iSdxopPg1g7f3-1" value="LA CASA DE LA AMAROK" style="text;html=1;strokeColor=none;fillColor=none;align=center;verticalAlign=middle;whiteSpace=wrap;rounded=0;fontSize=19;fontColor=#994C00;" parent="1" vertex="1">
          <mxGeometry x="160" y="-2310" width="320" height="30" as="geometry" />
        </mxCell>
        <mxCell id="tU79FLDJSpSBG0HfYjIW-1" value="empresa&lt;div&gt;&lt;span style=&quot;background-color: initial;&quot;&gt;direccion&lt;/span&gt;&lt;/div&gt;" style="ellipse;whiteSpace=wrap;html=1;fillColor=#f5f5f5;gradientColor=#b3b3b3;strokeColor=#666666;fontColor=#000000;" parent="1" vertex="1">
          <mxGeometry x="-770" y="-2080" width="92" height="40" as="geometry" />
        </mxCell>
        <mxCell id="tU79FLDJSpSBG0HfYjIW-2" value="empresa&lt;div&gt;telefono&lt;/div&gt;" style="ellipse;whiteSpace=wrap;html=1;fillColor=#f5f5f5;gradientColor=#b3b3b3;strokeColor=#666666;fontColor=#000000;" parent="1" vertex="1">
          <mxGeometry x="-770" y="-2130" width="92" height="40" as="geometry" />
        </mxCell>
        <mxCell id="tU79FLDJSpSBG0HfYjIW-3" value="empresa&lt;div&gt;Email&lt;/div&gt;" style="ellipse;whiteSpace=wrap;html=1;fillColor=#f5f5f5;gradientColor=#b3b3b3;strokeColor=#666666;fontColor=#000000;" parent="1" vertex="1">
          <mxGeometry x="-700" y="-2210" width="92" height="40" as="geometry" />
        </mxCell>
        <mxCell id="tU79FLDJSpSBG0HfYjIW-4" value="numero&lt;br&gt;factura&lt;br&gt;final" style="ellipse;whiteSpace=wrap;html=1;fillColor=#f5f5f5;gradientColor=#b3b3b3;strokeColor=#666666;fontColor=#000000;" parent="1" vertex="1">
          <mxGeometry x="-530" y="-2210" width="109" height="50" as="geometry" />
        </mxCell>
        <mxCell id="tU79FLDJSpSBG0HfYjIW-5" value="numero&lt;br&gt;factura&lt;br&gt;temporal" style="ellipse;whiteSpace=wrap;html=1;fillColor=#f5f5f5;gradientColor=#b3b3b3;strokeColor=#666666;fontColor=#000000;" parent="1" vertex="1">
          <mxGeometry x="-450" y="-2190" width="109" height="50" as="geometry" />
        </mxCell>
        <mxCell id="tU79FLDJSpSBG0HfYjIW-6" value="&lt;div&gt;&lt;span style=&quot;background-color: initial;&quot;&gt;porcentaje&lt;/span&gt;&lt;/div&gt;&lt;div&gt;iva&lt;/div&gt;" style="ellipse;whiteSpace=wrap;html=1;fillColor=#f5f5f5;gradientColor=#b3b3b3;strokeColor=#666666;fontColor=#000000;" parent="1" vertex="1">
          <mxGeometry x="-370" y="-2160" width="92" height="40" as="geometry" />
        </mxCell>
        <mxCell id="tU79FLDJSpSBG0HfYjIW-7" value="empresa&lt;div&gt;celular&lt;/div&gt;" style="ellipse;whiteSpace=wrap;html=1;fillColor=#f5f5f5;gradientColor=#b3b3b3;strokeColor=#666666;fontColor=#000000;" parent="1" vertex="1">
          <mxGeometry x="-740" y="-2170" width="92" height="40" as="geometry" />
        </mxCell>
        <mxCell id="tU79FLDJSpSBG0HfYjIW-10" value="sesiÃ³n&lt;div&gt;activa&lt;/div&gt;" style="ellipse;whiteSpace=wrap;html=1;fillColor=#f5f5f5;gradientColor=#b3b3b3;strokeColor=#666666;fontColor=#000000;" parent="1" vertex="1">
          <mxGeometry x="-590" y="-1990" width="92" height="40" as="geometry" />
        </mxCell>
        <mxCell id="tU79FLDJSpSBG0HfYjIW-12" value="" style="endArrow=classic;html=1;rounded=0;entryX=1;entryY=0.5;entryDx=0;entryDy=0;exitX=0;exitY=0.75;exitDx=0;exitDy=0;" parent="1" source="6IDJ3EbofN4p_IqaLJ9K-1" target="tU79FLDJSpSBG0HfYjIW-1" edge="1">
          <mxGeometry width="50" height="50" relative="1" as="geometry">
            <mxPoint x="-580" y="-2060" as="sourcePoint" />
            <mxPoint x="-721" y="-1994" as="targetPoint" />
          </mxGeometry>
        </mxCell>
        <mxCell id="tU79FLDJSpSBG0HfYjIW-13" value="" style="endArrow=classic;html=1;rounded=0;entryX=1.003;entryY=0.722;entryDx=0;entryDy=0;exitX=0;exitY=0.5;exitDx=0;exitDy=0;entryPerimeter=0;" parent="1" source="6IDJ3EbofN4p_IqaLJ9K-1" target="tU79FLDJSpSBG0HfYjIW-2" edge="1">
          <mxGeometry width="50" height="50" relative="1" as="geometry">
            <mxPoint x="-570" y="-2050" as="sourcePoint" />
            <mxPoint x="-711" y="-1984" as="targetPoint" />
          </mxGeometry>
        </mxCell>
        <mxCell id="tU79FLDJSpSBG0HfYjIW-14" value="" style="endArrow=classic;html=1;rounded=0;entryX=0.969;entryY=0.828;entryDx=0;entryDy=0;entryPerimeter=0;exitX=0;exitY=0.25;exitDx=0;exitDy=0;" parent="1" source="6IDJ3EbofN4p_IqaLJ9K-1" target="tU79FLDJSpSBG0HfYjIW-7" edge="1">
          <mxGeometry width="50" height="50" relative="1" as="geometry">
            <mxPoint x="-620" y="-2130" as="sourcePoint" />
            <mxPoint x="-701" y="-1974" as="targetPoint" />
          </mxGeometry>
        </mxCell>
        <mxCell id="tU79FLDJSpSBG0HfYjIW-15" value="" style="endArrow=classic;html=1;rounded=0;entryX=0.652;entryY=1;entryDx=0;entryDy=0;exitX=0;exitY=0;exitDx=0;exitDy=0;entryPerimeter=0;" parent="1" source="6IDJ3EbofN4p_IqaLJ9K-1" target="tU79FLDJSpSBG0HfYjIW-3" edge="1">
          <mxGeometry width="50" height="50" relative="1" as="geometry">
            <mxPoint x="-550" y="-2030" as="sourcePoint" />
            <mxPoint x="-691" y="-1964" as="targetPoint" />
          </mxGeometry>
        </mxCell>
        <mxCell id="tU79FLDJSpSBG0HfYjIW-16" value="" style="endArrow=classic;html=1;rounded=0;entryX=0.5;entryY=1;entryDx=0;entryDy=0;exitX=0.25;exitY=0;exitDx=0;exitDy=0;" parent="1" source="6IDJ3EbofN4p_IqaLJ9K-1" target="6IDJ3EbofN4p_IqaLJ9K-5" edge="1">
          <mxGeometry width="50" height="50" relative="1" as="geometry">
            <mxPoint x="-540" y="-2020" as="sourcePoint" />
            <mxPoint x="-681" y="-1954" as="targetPoint" />
          </mxGeometry>
        </mxCell>
        <mxCell id="tU79FLDJSpSBG0HfYjIW-17" value="" style="endArrow=classic;html=1;rounded=0;entryX=0.277;entryY=0.957;entryDx=0;entryDy=0;entryPerimeter=0;" parent="1" target="tU79FLDJSpSBG0HfYjIW-4" edge="1">
          <mxGeometry width="50" height="50" relative="1" as="geometry">
            <mxPoint x="-550" y="-2102" as="sourcePoint" />
            <mxPoint x="-671" y="-1944" as="targetPoint" />
          </mxGeometry>
        </mxCell>
        <mxCell id="tU79FLDJSpSBG0HfYjIW-18" value="" style="endArrow=classic;html=1;rounded=0;entryX=0;entryY=1;entryDx=0;entryDy=0;exitX=0.622;exitY=-0.053;exitDx=0;exitDy=0;exitPerimeter=0;" parent="1" source="6IDJ3EbofN4p_IqaLJ9K-1" target="tU79FLDJSpSBG0HfYjIW-5" edge="1">
          <mxGeometry width="50" height="50" relative="1" as="geometry">
            <mxPoint x="-520" y="-2000" as="sourcePoint" />
            <mxPoint x="-661" y="-1934" as="targetPoint" />
          </mxGeometry>
        </mxCell>
        <mxCell id="tU79FLDJSpSBG0HfYjIW-19" value="" style="endArrow=classic;html=1;rounded=0;entryX=-0.015;entryY=0.736;entryDx=0;entryDy=0;exitX=1;exitY=0;exitDx=0;exitDy=0;entryPerimeter=0;" parent="1" source="6IDJ3EbofN4p_IqaLJ9K-1" target="tU79FLDJSpSBG0HfYjIW-6" edge="1">
          <mxGeometry width="50" height="50" relative="1" as="geometry">
            <mxPoint x="-510" y="-1990" as="sourcePoint" />
            <mxPoint x="-651" y="-1924" as="targetPoint" />
          </mxGeometry>
        </mxCell>
        <mxCell id="tU79FLDJSpSBG0HfYjIW-20" value="" style="endArrow=classic;html=1;rounded=0;entryX=0;entryY=0.5;entryDx=0;entryDy=0;exitX=1;exitY=0.25;exitDx=0;exitDy=0;" parent="1" source="6IDJ3EbofN4p_IqaLJ9K-1" target="Pxh_OKHmg_-3_lXB4SAX-26" edge="1">
          <mxGeometry width="50" height="50" relative="1" as="geometry">
            <mxPoint x="-500" y="-1980" as="sourcePoint" />
            <mxPoint x="-641" y="-1914" as="targetPoint" />
          </mxGeometry>
        </mxCell>
        <mxCell id="tU79FLDJSpSBG0HfYjIW-21" value="" style="endArrow=classic;html=1;rounded=0;entryX=0;entryY=0.5;entryDx=0;entryDy=0;exitX=1;exitY=0.75;exitDx=0;exitDy=0;" parent="1" source="6IDJ3EbofN4p_IqaLJ9K-1" target="Pxh_OKHmg_-3_lXB4SAX-28" edge="1">
          <mxGeometry width="50" height="50" relative="1" as="geometry">
            <mxPoint x="-490" y="-1970" as="sourcePoint" />
            <mxPoint x="-631" y="-1904" as="targetPoint" />
          </mxGeometry>
        </mxCell>
        <mxCell id="tU79FLDJSpSBG0HfYjIW-22" value="" style="endArrow=classic;html=1;rounded=0;entryX=0.004;entryY=0.341;entryDx=0;entryDy=0;exitX=0.942;exitY=1.047;exitDx=0;exitDy=0;entryPerimeter=0;exitPerimeter=0;" parent="1" source="6IDJ3EbofN4p_IqaLJ9K-1" target="mK5MaRVgMIgPuESucfq4-9" edge="1">
          <mxGeometry width="50" height="50" relative="1" as="geometry">
            <mxPoint x="-480" y="-1960" as="sourcePoint" />
            <mxPoint x="-621" y="-1894" as="targetPoint" />
          </mxGeometry>
        </mxCell>
        <mxCell id="tU79FLDJSpSBG0HfYjIW-23" value="" style="endArrow=classic;html=1;rounded=0;entryX=0.37;entryY=0.081;entryDx=0;entryDy=0;exitX=0.75;exitY=1;exitDx=0;exitDy=0;entryPerimeter=0;" parent="1" source="6IDJ3EbofN4p_IqaLJ9K-1" target="mK5MaRVgMIgPuESucfq4-8" edge="1">
          <mxGeometry width="50" height="50" relative="1" as="geometry">
            <mxPoint x="-495" y="-2059" as="sourcePoint" />
            <mxPoint x="-400" y="-1996" as="targetPoint" />
          </mxGeometry>
        </mxCell>
        <mxCell id="tU79FLDJSpSBG0HfYjIW-24" value="" style="endArrow=classic;html=1;rounded=0;entryX=0.5;entryY=0;entryDx=0;entryDy=0;exitX=0.5;exitY=1;exitDx=0;exitDy=0;" parent="1" source="6IDJ3EbofN4p_IqaLJ9K-1" target="tU79FLDJSpSBG0HfYjIW-10" edge="1">
          <mxGeometry width="50" height="50" relative="1" as="geometry">
            <mxPoint x="-485" y="-2049" as="sourcePoint" />
            <mxPoint x="-390" y="-1986" as="targetPoint" />
          </mxGeometry>
        </mxCell>
        <mxCell id="tU79FLDJSpSBG0HfYjIW-25" value="Excepciones" style="rounded=1;whiteSpace=wrap;html=1;fillColor=#d5e8d4;strokeColor=#82b366;" parent="1" vertex="1">
          <mxGeometry x="-630" y="-1780" width="80" height="30" as="geometry" />
        </mxCell>
        <mxCell id="tU79FLDJSpSBG0HfYjIW-26" value="&lt;u&gt;codigo&lt;/u&gt;" style="ellipse;whiteSpace=wrap;html=1;fillColor=#f5f5f5;gradientColor=#b3b3b3;strokeColor=#666666;fontColor=#000000;" parent="1" vertex="1">
          <mxGeometry x="-680" y="-1840" width="80.25" height="30" as="geometry" />
        </mxCell>
        <mxCell id="tU79FLDJSpSBG0HfYjIW-27" value="nombre" style="ellipse;whiteSpace=wrap;html=1;fillColor=#f5f5f5;gradientColor=#b3b3b3;strokeColor=#666666;fontColor=#000000;" parent="1" vertex="1">
          <mxGeometry x="-590" y="-1840" width="92" height="30" as="geometry" />
        </mxCell>
        <mxCell id="tU79FLDJSpSBG0HfYjIW-29" value="" style="endArrow=classic;html=1;rounded=0;entryX=0.5;entryY=1;entryDx=0;entryDy=0;exitX=0.25;exitY=0;exitDx=0;exitDy=0;" parent="1" source="tU79FLDJSpSBG0HfYjIW-25" target="tU79FLDJSpSBG0HfYjIW-26" edge="1">
          <mxGeometry width="50" height="50" relative="1" as="geometry">
            <mxPoint x="-562" y="-1820" as="sourcePoint" />
            <mxPoint x="-650" y="-1803" as="targetPoint" />
          </mxGeometry>
        </mxCell>
        <mxCell id="tU79FLDJSpSBG0HfYjIW-30" value="" style="endArrow=classic;html=1;rounded=0;entryX=0.331;entryY=1.095;entryDx=0;entryDy=0;exitX=0.75;exitY=0;exitDx=0;exitDy=0;entryPerimeter=0;" parent="1" source="tU79FLDJSpSBG0HfYjIW-25" target="tU79FLDJSpSBG0HfYjIW-27" edge="1">
          <mxGeometry width="50" height="50" relative="1" as="geometry">
            <mxPoint x="-542" y="-1840" as="sourcePoint" />
            <mxPoint x="-630" y="-1823" as="targetPoint" />
          </mxGeometry>
        </mxCell>
        <mxCell id="tU79FLDJSpSBG0HfYjIW-31" value="ContÃ¡ctenos" style="rounded=1;whiteSpace=wrap;html=1;fillColor=#d5e8d4;strokeColor=#82b366;" parent="1" vertex="1">
          <mxGeometry x="-640" y="-1610" width="80" height="30" as="geometry" />
        </mxCell>
        <mxCell id="tU79FLDJSpSBG0HfYjIW-32" value="&lt;u&gt;codigo&lt;/u&gt;" style="ellipse;whiteSpace=wrap;html=1;fillColor=#f5f5f5;gradientColor=#b3b3b3;strokeColor=#666666;fontColor=#000000;" parent="1" vertex="1">
          <mxGeometry x="-680" y="-1670" width="80.25" height="30" as="geometry" />
        </mxCell>
        <mxCell id="tU79FLDJSpSBG0HfYjIW-33" value="nombre" style="ellipse;whiteSpace=wrap;html=1;fillColor=#f5f5f5;gradientColor=#b3b3b3;strokeColor=#666666;fontColor=#000000;" parent="1" vertex="1">
          <mxGeometry x="-580" y="-1670" width="92" height="30" as="geometry" />
        </mxCell>
        <mxCell id="tU79FLDJSpSBG0HfYjIW-34" value="" style="endArrow=classic;html=1;rounded=0;entryX=0.5;entryY=1;entryDx=0;entryDy=0;exitX=0.5;exitY=0;exitDx=0;exitDy=0;" parent="1" source="tU79FLDJSpSBG0HfYjIW-31" target="tU79FLDJSpSBG0HfYjIW-32" edge="1">
          <mxGeometry width="50" height="50" relative="1" as="geometry">
            <mxPoint x="-572" y="-1650" as="sourcePoint" />
            <mxPoint x="-660" y="-1633" as="targetPoint" />
          </mxGeometry>
        </mxCell>
        <mxCell id="tU79FLDJSpSBG0HfYjIW-35" value="" style="endArrow=classic;html=1;rounded=0;entryX=0.331;entryY=1.095;entryDx=0;entryDy=0;exitX=1;exitY=0;exitDx=0;exitDy=0;entryPerimeter=0;" parent="1" source="tU79FLDJSpSBG0HfYjIW-31" target="tU79FLDJSpSBG0HfYjIW-33" edge="1">
          <mxGeometry width="50" height="50" relative="1" as="geometry">
            <mxPoint x="-552" y="-1670" as="sourcePoint" />
            <mxPoint x="-640" y="-1653" as="targetPoint" />
          </mxGeometry>
        </mxCell>
        <mxCell id="tU79FLDJSpSBG0HfYjIW-36" value="telefono" style="ellipse;whiteSpace=wrap;html=1;fillColor=#f5f5f5;gradientColor=#b3b3b3;strokeColor=#666666;fontColor=#000000;" parent="1" vertex="1">
          <mxGeometry x="-540" y="-1630" width="92" height="30" as="geometry" />
        </mxCell>
        <mxCell id="tU79FLDJSpSBG0HfYjIW-37" value="email" style="ellipse;whiteSpace=wrap;html=1;fillColor=#f5f5f5;gradientColor=#b3b3b3;strokeColor=#666666;fontColor=#000000;" parent="1" vertex="1">
          <mxGeometry x="-530" y="-1570" width="92" height="30" as="geometry" />
        </mxCell>
        <mxCell id="tU79FLDJSpSBG0HfYjIW-38" value="asunto" style="ellipse;whiteSpace=wrap;html=1;fillColor=#f5f5f5;gradientColor=#b3b3b3;strokeColor=#666666;fontColor=#000000;" parent="1" vertex="1">
          <mxGeometry x="-640" y="-1550" width="92" height="30" as="geometry" />
        </mxCell>
        <mxCell id="tU79FLDJSpSBG0HfYjIW-39" value="revisado" style="ellipse;whiteSpace=wrap;html=1;fillColor=#f5f5f5;gradientColor=#b3b3b3;strokeColor=#666666;fontColor=#000000;" parent="1" vertex="1">
          <mxGeometry x="-760" y="-1590" width="92" height="30" as="geometry" />
        </mxCell>
        <mxCell id="tU79FLDJSpSBG0HfYjIW-40" value="" style="endArrow=classic;html=1;rounded=0;entryX=0;entryY=1;entryDx=0;entryDy=0;exitX=1;exitY=0.5;exitDx=0;exitDy=0;" parent="1" source="tU79FLDJSpSBG0HfYjIW-31" target="tU79FLDJSpSBG0HfYjIW-36" edge="1">
          <mxGeometry width="50" height="50" relative="1" as="geometry">
            <mxPoint x="-550" y="-1600" as="sourcePoint" />
            <mxPoint x="-540" y="-1627" as="targetPoint" />
          </mxGeometry>
        </mxCell>
        <mxCell id="tU79FLDJSpSBG0HfYjIW-41" value="" style="endArrow=classic;html=1;rounded=0;entryX=0.023;entryY=0.191;entryDx=0;entryDy=0;exitX=1;exitY=1;exitDx=0;exitDy=0;entryPerimeter=0;" parent="1" source="tU79FLDJSpSBG0HfYjIW-31" target="tU79FLDJSpSBG0HfYjIW-37" edge="1">
          <mxGeometry width="50" height="50" relative="1" as="geometry">
            <mxPoint x="-540" y="-1590" as="sourcePoint" />
            <mxPoint x="-530" y="-1617" as="targetPoint" />
          </mxGeometry>
        </mxCell>
        <mxCell id="tU79FLDJSpSBG0HfYjIW-42" value="" style="endArrow=classic;html=1;rounded=0;entryX=0.5;entryY=0;entryDx=0;entryDy=0;exitX=0.5;exitY=1;exitDx=0;exitDy=0;" parent="1" source="tU79FLDJSpSBG0HfYjIW-31" target="tU79FLDJSpSBG0HfYjIW-38" edge="1">
          <mxGeometry width="50" height="50" relative="1" as="geometry">
            <mxPoint x="-530" y="-1580" as="sourcePoint" />
            <mxPoint x="-520" y="-1607" as="targetPoint" />
          </mxGeometry>
        </mxCell>
        <mxCell id="tU79FLDJSpSBG0HfYjIW-43" value="" style="endArrow=classic;html=1;rounded=0;entryX=1;entryY=0;entryDx=0;entryDy=0;exitX=0;exitY=0.5;exitDx=0;exitDy=0;" parent="1" source="tU79FLDJSpSBG0HfYjIW-31" target="tU79FLDJSpSBG0HfYjIW-39" edge="1">
          <mxGeometry width="50" height="50" relative="1" as="geometry">
            <mxPoint x="-520" y="-1570" as="sourcePoint" />
            <mxPoint x="-510" y="-1597" as="targetPoint" />
          </mxGeometry>
        </mxCell>
        <mxCell id="tU79FLDJSpSBG0HfYjIW-45" value="email" style="ellipse;whiteSpace=wrap;html=1;fillColor=#f5f5f5;gradientColor=#b3b3b3;strokeColor=#666666;fontColor=#000000;" parent="1" vertex="1">
          <mxGeometry x="389" y="-1680" width="70" height="20" as="geometry" />
        </mxCell>
        <mxCell id="tU79FLDJSpSBG0HfYjIW-46" value="activo" style="ellipse;whiteSpace=wrap;html=1;fillColor=#f5f5f5;gradientColor=#b3b3b3;strokeColor=#666666;fontColor=#000000;" parent="1" vertex="1">
          <mxGeometry x="449" y="-1660" width="70" height="20" as="geometry" />
        </mxCell>
        <mxCell id="tU79FLDJSpSBG0HfYjIW-47" value="" style="endArrow=classic;html=1;rounded=0;entryX=0.5;entryY=1;entryDx=0;entryDy=0;exitX=0.206;exitY=0.05;exitDx=0;exitDy=0;exitPerimeter=0;" parent="1" source="Szb3leIw7-hetxSX2-5U-63" target="tU79FLDJSpSBG0HfYjIW-45" edge="1">
          <mxGeometry width="50" height="50" relative="1" as="geometry">
            <mxPoint x="439" y="-1630" as="sourcePoint" />
            <mxPoint x="399" y="-1638" as="targetPoint" />
          </mxGeometry>
        </mxCell>
        <mxCell id="tU79FLDJSpSBG0HfYjIW-48" value="" style="endArrow=classic;html=1;rounded=0;entryX=0;entryY=1;entryDx=0;entryDy=0;exitX=0.378;exitY=0;exitDx=0;exitDy=0;exitPerimeter=0;" parent="1" source="Szb3leIw7-hetxSX2-5U-63" target="tU79FLDJSpSBG0HfYjIW-46" edge="1">
          <mxGeometry width="50" height="50" relative="1" as="geometry">
            <mxPoint x="432" y="-1587" as="sourcePoint" />
            <mxPoint x="409" y="-1628" as="targetPoint" />
          </mxGeometry>
        </mxCell>
        <mxCell id="3PmhoJ4yJODrcaeQDymi-120" value="tipo de producto" style="ellipse;whiteSpace=wrap;html=1;fillColor=#f5f5f5;gradientColor=#b3b3b3;strokeColor=#666666;fontColor=#000000;" vertex="1" parent="1">
          <mxGeometry x="679" y="-1710" width="80" height="30" as="geometry" />
        </mxCell>
        <mxCell id="3PmhoJ4yJODrcaeQDymi-122" value="" style="endArrow=classic;html=1;rounded=0;entryX=0.5;entryY=1;entryDx=0;entryDy=0;exitX=0;exitY=0.25;exitDx=0;exitDy=0;" edge="1" parent="1" source="Szb3leIw7-hetxSX2-5U-47" target="3PmhoJ4yJODrcaeQDymi-120">
          <mxGeometry width="50" height="50" relative="1" as="geometry">
            <mxPoint x="689" y="-1615" as="sourcePoint" />
            <mxPoint x="716" y="-1650" as="targetPoint" />
          </mxGeometry>
        </mxCell>
        <mxCell id="3PmhoJ4yJODrcaeQDymi-123" value="linea" style="ellipse;whiteSpace=wrap;html=1;fillColor=#f5f5f5;gradientColor=#b3b3b3;strokeColor=#666666;fontColor=#000000;" vertex="1" parent="1">
          <mxGeometry x="649" y="-1680" width="70" height="20" as="geometry" />
        </mxCell>
        <mxCell id="3PmhoJ4yJODrcaeQDymi-124" value="marca" style="ellipse;whiteSpace=wrap;html=1;fillColor=#f5f5f5;gradientColor=#b3b3b3;strokeColor=#666666;fontColor=#000000;" vertex="1" parent="1">
          <mxGeometry x="649" y="-1660" width="70" height="20" as="geometry" />
        </mxCell>
        <mxCell id="3PmhoJ4yJODrcaeQDymi-125" value="numero&lt;div&gt;estante&lt;/div&gt;" style="ellipse;whiteSpace=wrap;html=1;fillColor=#f5f5f5;gradientColor=#b3b3b3;strokeColor=#666666;fontColor=#000000;" vertex="1" parent="1">
          <mxGeometry x="659" y="-1640" width="70" height="30" as="geometry" />
        </mxCell>
        <mxCell id="3PmhoJ4yJODrcaeQDymi-126" value="cÃ³digo&lt;div&gt;secciÃ³n&lt;/div&gt;" style="ellipse;whiteSpace=wrap;html=1;fillColor=#f5f5f5;gradientColor=#b3b3b3;strokeColor=#666666;fontColor=#000000;" vertex="1" parent="1">
          <mxGeometry x="689" y="-1610" width="80" height="30" as="geometry" />
        </mxCell>
        <mxCell id="3PmhoJ4yJODrcaeQDymi-127" value="" style="endArrow=classic;html=1;rounded=0;entryX=1;entryY=0.5;entryDx=0;entryDy=0;exitX=0;exitY=0.5;exitDx=0;exitDy=0;" edge="1" parent="1" source="Szb3leIw7-hetxSX2-5U-47" target="3PmhoJ4yJODrcaeQDymi-123">
          <mxGeometry width="50" height="50" relative="1" as="geometry">
            <mxPoint x="752" y="-1657" as="sourcePoint" />
            <mxPoint x="729" y="-1670" as="targetPoint" />
          </mxGeometry>
        </mxCell>
        <mxCell id="3PmhoJ4yJODrcaeQDymi-128" value="" style="endArrow=classic;html=1;rounded=0;entryX=1;entryY=0.5;entryDx=0;entryDy=0;exitX=0;exitY=0.75;exitDx=0;exitDy=0;" edge="1" parent="1" source="Szb3leIw7-hetxSX2-5U-47" target="3PmhoJ4yJODrcaeQDymi-124">
          <mxGeometry width="50" height="50" relative="1" as="geometry">
            <mxPoint x="739" y="-1647" as="sourcePoint" />
            <mxPoint x="739" y="-1660" as="targetPoint" />
          </mxGeometry>
        </mxCell>
        <mxCell id="3PmhoJ4yJODrcaeQDymi-129" value="" style="endArrow=classic;html=1;rounded=0;entryX=1.017;entryY=0.333;entryDx=0;entryDy=0;exitX=0;exitY=1;exitDx=0;exitDy=0;entryPerimeter=0;fontStyle=1" edge="1" parent="1" source="Szb3leIw7-hetxSX2-5U-47" target="3PmhoJ4yJODrcaeQDymi-125">
          <mxGeometry width="50" height="50" relative="1" as="geometry">
            <mxPoint x="772" y="-1637" as="sourcePoint" />
            <mxPoint x="749" y="-1650" as="targetPoint" />
          </mxGeometry>
        </mxCell>
        <mxCell id="3PmhoJ4yJODrcaeQDymi-130" value="" style="endArrow=classic;html=1;rounded=0;entryX=0.692;entryY=-0.018;entryDx=0;entryDy=0;exitX=0.132;exitY=0.991;exitDx=0;exitDy=0;entryPerimeter=0;exitPerimeter=0;" edge="1" parent="1" source="Szb3leIw7-hetxSX2-5U-47" target="3PmhoJ4yJODrcaeQDymi-126">
          <mxGeometry width="50" height="50" relative="1" as="geometry">
            <mxPoint x="782" y="-1627" as="sourcePoint" />
            <mxPoint x="759" y="-1640" as="targetPoint" />
          </mxGeometry>
        </mxCell>
        <mxCell id="3PmhoJ4yJODrcaeQDymi-131" value="activo" style="ellipse;whiteSpace=wrap;html=1;fillColor=#f5f5f5;gradientColor=#b3b3b3;strokeColor=#666666;fontColor=#000000;" vertex="1" parent="1">
          <mxGeometry x="799" y="-1590" width="70" height="20" as="geometry" />
        </mxCell>
        <mxCell id="3PmhoJ4yJODrcaeQDymi-132" value="" style="endArrow=classic;html=1;rounded=0;entryX=0.347;entryY=-0.053;entryDx=0;entryDy=0;entryPerimeter=0;exitX=0.623;exitY=1.009;exitDx=0;exitDy=0;exitPerimeter=0;" edge="1" parent="1" source="Szb3leIw7-hetxSX2-5U-47" target="3PmhoJ4yJODrcaeQDymi-131">
          <mxGeometry width="50" height="50" relative="1" as="geometry">
            <mxPoint x="809" y="-1600" as="sourcePoint" />
            <mxPoint x="754" y="-1601" as="targetPoint" />
          </mxGeometry>
        </mxCell>
        <mxCell id="3PmhoJ4yJODrcaeQDymi-136" value="activo" style="ellipse;whiteSpace=wrap;html=1;fillColor=#f5f5f5;gradientColor=#b3b3b3;strokeColor=#666666;fontColor=#000000;" vertex="1" parent="1">
          <mxGeometry x="259" y="-1900" width="70" height="20" as="geometry" />
        </mxCell>
        <mxCell id="3PmhoJ4yJODrcaeQDymi-137" value="" style="endArrow=classic;html=1;rounded=0;entryX=0.302;entryY=0.974;entryDx=0;entryDy=0;exitX=0.75;exitY=0;exitDx=0;exitDy=0;entryPerimeter=0;" edge="1" parent="1" source="Szb3leIw7-hetxSX2-5U-2" target="3PmhoJ4yJODrcaeQDymi-136">
          <mxGeometry width="50" height="50" relative="1" as="geometry">
            <mxPoint x="198" y="-1832" as="sourcePoint" />
            <mxPoint x="169" y="-1865" as="targetPoint" />
          </mxGeometry>
        </mxCell>
        <mxCell id="3PmhoJ4yJODrcaeQDymi-138" value="indicador sesiÃ³n" style="ellipse;whiteSpace=wrap;html=1;fillColor=#f5f5f5;gradientColor=#b3b3b3;strokeColor=#666666;fontColor=#000000;" vertex="1" parent="1">
          <mxGeometry x="79" y="-1830" width="80" height="30" as="geometry" />
        </mxCell>
        <mxCell id="3PmhoJ4yJODrcaeQDymi-139" value="" style="endArrow=classic;html=1;rounded=0;entryX=0.955;entryY=0.404;entryDx=0;entryDy=0;exitX=-0.035;exitY=0.579;exitDx=0;exitDy=0;entryPerimeter=0;exitPerimeter=0;" edge="1" parent="1" source="Szb3leIw7-hetxSX2-5U-2" target="3PmhoJ4yJODrcaeQDymi-138">
          <mxGeometry width="50" height="50" relative="1" as="geometry">
            <mxPoint x="266" y="-1840" as="sourcePoint" />
            <mxPoint x="290" y="-1871" as="targetPoint" />
          </mxGeometry>
        </mxCell>
        <mxCell id="3PmhoJ4yJODrcaeQDymi-140" value="nombre" style="ellipse;whiteSpace=wrap;html=1;fillColor=#f5f5f5;gradientColor=#b3b3b3;strokeColor=#666666;fontColor=#000000;" vertex="1" parent="1">
          <mxGeometry x="749" y="-2100" width="70" height="20" as="geometry" />
        </mxCell>
        <mxCell id="3PmhoJ4yJODrcaeQDymi-141" style="rounded=0;orthogonalLoop=1;jettySize=auto;html=1;exitX=0;exitY=0.5;exitDx=0;exitDy=0;entryX=1;entryY=0.5;entryDx=0;entryDy=0;" edge="1" parent="1" source="Pxh_OKHmg_-3_lXB4SAX-50" target="3PmhoJ4yJODrcaeQDymi-140">
          <mxGeometry relative="1" as="geometry">
            <mxPoint x="874" y="-2082" as="sourcePoint" />
            <mxPoint x="856" y="-2105" as="targetPoint" />
          </mxGeometry>
        </mxCell>
        <mxCell id="3PmhoJ4yJODrcaeQDymi-143" value="departamento" style="ellipse;whiteSpace=wrap;html=1;fillColor=#f5f5f5;gradientColor=#b3b3b3;strokeColor=#666666;fontColor=#000000;" vertex="1" parent="1">
          <mxGeometry x="469" y="-1880" width="84" height="20" as="geometry" />
        </mxCell>
        <mxCell id="3PmhoJ4yJODrcaeQDymi-144" value="" style="endArrow=classic;html=1;rounded=0;entryX=1;entryY=0.5;entryDx=0;entryDy=0;exitX=0;exitY=0;exitDx=0;exitDy=0;" edge="1" parent="1" source="Szb3leIw7-hetxSX2-5U-24" target="3PmhoJ4yJODrcaeQDymi-143">
          <mxGeometry width="50" height="50" relative="1" as="geometry">
            <mxPoint x="588" y="-1832" as="sourcePoint" />
            <mxPoint x="568" y="-1836" as="targetPoint" />
          </mxGeometry>
        </mxCell>
        <mxCell id="3PmhoJ4yJODrcaeQDymi-146" value="ciudad" style="ellipse;whiteSpace=wrap;html=1;fillColor=#f5f5f5;gradientColor=#b3b3b3;strokeColor=#666666;fontColor=#000000;" vertex="1" parent="1">
          <mxGeometry x="469" y="-1910" width="84" height="20" as="geometry" />
        </mxCell>
        <mxCell id="3PmhoJ4yJODrcaeQDymi-147" value="" style="endArrow=classic;html=1;rounded=0;entryX=0.944;entryY=0.822;entryDx=0;entryDy=0;exitX=0.07;exitY=-0.089;exitDx=0;exitDy=0;entryPerimeter=0;exitPerimeter=0;" edge="1" parent="1" source="Szb3leIw7-hetxSX2-5U-24" target="3PmhoJ4yJODrcaeQDymi-146">
          <mxGeometry width="50" height="50" relative="1" as="geometry">
            <mxPoint x="588" y="-1840" as="sourcePoint" />
            <mxPoint x="563" y="-1860" as="targetPoint" />
          </mxGeometry>
        </mxCell>
        <mxCell id="3PmhoJ4yJODrcaeQDymi-149" value="tipo pago" style="ellipse;whiteSpace=wrap;html=1;fillColor=#f5f5f5;gradientColor=#b3b3b3;strokeColor=#666666;fontColor=#000000;" vertex="1" parent="1">
          <mxGeometry x="639" y="-1990" width="70" height="20" as="geometry" />
        </mxCell>
        <mxCell id="3PmhoJ4yJODrcaeQDymi-150" style="rounded=0;orthogonalLoop=1;jettySize=auto;html=1;entryX=0.61;entryY=1.133;entryDx=0;entryDy=0;entryPerimeter=0;exitX=0.559;exitY=-0.059;exitDx=0;exitDy=0;exitPerimeter=0;" edge="1" parent="1" source="Szb3leIw7-hetxSX2-5U-24" target="3PmhoJ4yJODrcaeQDymi-149">
          <mxGeometry relative="1" as="geometry">
            <mxPoint x="629" y="-1860" as="sourcePoint" />
            <mxPoint x="593" y="-1958" as="targetPoint" />
          </mxGeometry>
        </mxCell>
        <mxCell id="3PmhoJ4yJODrcaeQDymi-151" value="cantidad total" style="ellipse;whiteSpace=wrap;html=1;fillColor=#f5f5f5;gradientColor=#b3b3b3;strokeColor=#666666;fontColor=#000000;" vertex="1" parent="1">
          <mxGeometry x="589" y="-2020" width="70" height="30" as="geometry" />
        </mxCell>
        <mxCell id="3PmhoJ4yJODrcaeQDymi-152" style="rounded=0;orthogonalLoop=1;jettySize=auto;html=1;entryX=0.513;entryY=1.123;entryDx=0;entryDy=0;entryPerimeter=0;exitX=0.5;exitY=0;exitDx=0;exitDy=0;" edge="1" parent="1" source="Szb3leIw7-hetxSX2-5U-24" target="3PmhoJ4yJODrcaeQDymi-151">
          <mxGeometry relative="1" as="geometry">
            <mxPoint x="638" y="-1842" as="sourcePoint" />
            <mxPoint x="692" y="-1957" as="targetPoint" />
          </mxGeometry>
        </mxCell>
        <mxCell id="3PmhoJ4yJODrcaeQDymi-153" value="indicador&lt;br&gt;cancelada" style="ellipse;whiteSpace=wrap;html=1;fillColor=#f5f5f5;gradientColor=#b3b3b3;strokeColor=#666666;fontColor=#000000;" vertex="1" parent="1">
          <mxGeometry x="868" y="-1920" width="89" height="30" as="geometry" />
        </mxCell>
        <mxCell id="3PmhoJ4yJODrcaeQDymi-154" style="rounded=0;orthogonalLoop=1;jettySize=auto;html=1;exitX=0;exitY=1;exitDx=0;exitDy=0;entryX=1;entryY=0;entryDx=0;entryDy=0;" edge="1" parent="1" source="5oVHAl8mUbuSBmOLs6Es-22" target="3PmhoJ4yJODrcaeQDymi-153">
          <mxGeometry relative="1" as="geometry">
            <mxPoint x="978" y="-1932" as="sourcePoint" />
            <mxPoint x="954" y="-1940" as="targetPoint" />
          </mxGeometry>
        </mxCell>
        <mxCell id="3PmhoJ4yJODrcaeQDymi-155" value="activo" style="ellipse;whiteSpace=wrap;html=1;fillColor=#f5f5f5;gradientColor=#b3b3b3;strokeColor=#666666;fontColor=#000000;" vertex="1" parent="1">
          <mxGeometry x="1479" y="-1550" width="70" height="20" as="geometry" />
        </mxCell>
        <mxCell id="3PmhoJ4yJODrcaeQDymi-156" style="rounded=0;orthogonalLoop=1;jettySize=auto;html=1;exitX=0.668;exitY=0.017;exitDx=0;exitDy=0;entryX=0;entryY=0.5;entryDx=0;entryDy=0;exitPerimeter=0;" edge="1" parent="1" source="Pxh_OKHmg_-3_lXB4SAX-103" target="3PmhoJ4yJODrcaeQDymi-155">
          <mxGeometry relative="1" as="geometry">
            <mxPoint x="1504" y="-1502" as="sourcePoint" />
            <mxPoint x="1534" y="-1500" as="targetPoint" />
          </mxGeometry>
        </mxCell>
        <mxCell id="3PmhoJ4yJODrcaeQDymi-162" value="fecha salida" style="ellipse;whiteSpace=wrap;html=1;fillColor=#f5f5f5;gradientColor=#b3b3b3;strokeColor=#666666;fontColor=#000000;" vertex="1" parent="1">
          <mxGeometry x="1159" y="-1670" width="60" height="30" as="geometry" />
        </mxCell>
        <mxCell id="3PmhoJ4yJODrcaeQDymi-163" value="fecha salida" style="ellipse;whiteSpace=wrap;html=1;fillColor=#f5f5f5;gradientColor=#b3b3b3;strokeColor=#666666;fontColor=#000000;" vertex="1" parent="1">
          <mxGeometry x="909" y="-1620" width="60" height="30" as="geometry" />
        </mxCell>
        <mxCell id="3PmhoJ4yJODrcaeQDymi-168" value="entregdo" style="ellipse;whiteSpace=wrap;html=1;fillColor=#f5f5f5;gradientColor=#b3b3b3;strokeColor=#666666;fontColor=#000000;" vertex="1" parent="1">
          <mxGeometry x="999" y="-1500" width="60" height="20" as="geometry" />
        </mxCell>
        <mxCell id="3PmhoJ4yJODrcaeQDymi-169" value="fecha entregado" style="ellipse;whiteSpace=wrap;html=1;fillColor=#f5f5f5;gradientColor=#b3b3b3;strokeColor=#666666;fontColor=#000000;" vertex="1" parent="1">
          <mxGeometry x="1009" y="-1480" width="60" height="40" as="geometry" />
        </mxCell>
        <mxCell id="3PmhoJ4yJODrcaeQDymi-170" style="rounded=0;orthogonalLoop=1;jettySize=auto;html=1;exitX=0.114;exitY=-0.088;exitDx=0;exitDy=0;entryX=0.977;entryY=0.271;entryDx=0;entryDy=0;entryPerimeter=0;exitPerimeter=0;" edge="1" parent="1" source="5oVHAl8mUbuSBmOLs6Es-5" target="3PmhoJ4yJODrcaeQDymi-169">
          <mxGeometry relative="1" as="geometry">
            <mxPoint x="1126" y="-1545" as="sourcePoint" />
            <mxPoint x="1073" y="-1485" as="targetPoint" />
          </mxGeometry>
        </mxCell>
        <mxCell id="3PmhoJ4yJODrcaeQDymi-171" style="rounded=0;orthogonalLoop=1;jettySize=auto;html=1;entryX=1;entryY=1;entryDx=0;entryDy=0;" edge="1" parent="1" target="5oVHAl8mUbuSBmOLs6Es-11">
          <mxGeometry relative="1" as="geometry">
            <mxPoint x="1099" y="-1590" as="sourcePoint" />
            <mxPoint x="1083" y="-1475" as="targetPoint" />
          </mxGeometry>
        </mxCell>
        <mxCell id="3PmhoJ4yJODrcaeQDymi-172" style="rounded=0;orthogonalLoop=1;jettySize=auto;html=1;exitX=0.607;exitY=-0.052;exitDx=0;exitDy=0;entryX=0.013;entryY=0.781;entryDx=0;entryDy=0;entryPerimeter=0;exitPerimeter=0;" edge="1" parent="1" source="Pxh_OKHmg_-3_lXB4SAX-9" target="3PmhoJ4yJODrcaeQDymi-162">
          <mxGeometry relative="1" as="geometry">
            <mxPoint x="1146" y="-1525" as="sourcePoint" />
            <mxPoint x="1093" y="-1465" as="targetPoint" />
          </mxGeometry>
        </mxCell>
        <mxCell id="3PmhoJ4yJODrcaeQDymi-173" style="rounded=0;orthogonalLoop=1;jettySize=auto;html=1;exitX=0.75;exitY=0;exitDx=0;exitDy=0;entryX=0;entryY=0.5;entryDx=0;entryDy=0;" edge="1" parent="1" source="Pxh_OKHmg_-3_lXB4SAX-9" target="5oVHAl8mUbuSBmOLs6Es-13">
          <mxGeometry relative="1" as="geometry">
            <mxPoint x="1156" y="-1515" as="sourcePoint" />
            <mxPoint x="1103" y="-1455" as="targetPoint" />
          </mxGeometry>
        </mxCell>
        <mxCell id="3PmhoJ4yJODrcaeQDymi-174" style="rounded=0;orthogonalLoop=1;jettySize=auto;html=1;exitX=1;exitY=0;exitDx=0;exitDy=0;entryX=0.222;entryY=1.063;entryDx=0;entryDy=0;entryPerimeter=0;" edge="1" parent="1" source="Pxh_OKHmg_-3_lXB4SAX-9" target="5oVHAl8mUbuSBmOLs6Es-10">
          <mxGeometry relative="1" as="geometry">
            <mxPoint x="1166" y="-1505" as="sourcePoint" />
            <mxPoint x="1113" y="-1445" as="targetPoint" />
          </mxGeometry>
        </mxCell>
        <mxCell id="3PmhoJ4yJODrcaeQDymi-175" style="rounded=0;orthogonalLoop=1;jettySize=auto;html=1;exitX=0.191;exitY=-0.11;exitDx=0;exitDy=0;entryX=1;entryY=1;entryDx=0;entryDy=0;exitPerimeter=0;" edge="1" parent="1" source="Pxh_OKHmg_-3_lXB4SAX-9" target="5oVHAl8mUbuSBmOLs6Es-12">
          <mxGeometry relative="1" as="geometry">
            <mxPoint x="1176" y="-1495" as="sourcePoint" />
            <mxPoint x="1123" y="-1435" as="targetPoint" />
          </mxGeometry>
        </mxCell>
        <mxCell id="3PmhoJ4yJODrcaeQDymi-176" value="tipo pago" style="ellipse;whiteSpace=wrap;html=1;fillColor=#f5f5f5;gradientColor=#b3b3b3;strokeColor=#666666;fontColor=#000000;" vertex="1" parent="1">
          <mxGeometry x="599" y="-1340" width="70" height="20" as="geometry" />
        </mxCell>
        <mxCell id="3PmhoJ4yJODrcaeQDymi-177" value="iva" style="ellipse;whiteSpace=wrap;html=1;fillColor=#f5f5f5;gradientColor=#b3b3b3;strokeColor=#666666;fontColor=#000000;" vertex="1" parent="1">
          <mxGeometry x="649" y="-1370" width="70" height="20" as="geometry" />
        </mxCell>
        <mxCell id="3PmhoJ4yJODrcaeQDymi-178" style="rounded=0;orthogonalLoop=1;jettySize=auto;html=1;exitX=0.377;exitY=1.147;exitDx=0;exitDy=0;entryX=0.173;entryY=-0.111;entryDx=0;entryDy=0;entryPerimeter=0;exitPerimeter=0;" edge="1" parent="1" source="XNQFGNxHQRq4NpZYo4hw-3" target="3PmhoJ4yJODrcaeQDymi-176">
          <mxGeometry relative="1" as="geometry">
            <mxPoint x="598" y="-1427" as="sourcePoint" />
            <mxPoint x="553" y="-1443" as="targetPoint" />
          </mxGeometry>
        </mxCell>
        <mxCell id="3PmhoJ4yJODrcaeQDymi-180" style="rounded=0;orthogonalLoop=1;jettySize=auto;html=1;exitX=0.589;exitY=1.089;exitDx=0;exitDy=0;entryX=0;entryY=0;entryDx=0;entryDy=0;exitPerimeter=0;" edge="1" parent="1" source="XNQFGNxHQRq4NpZYo4hw-3" target="3PmhoJ4yJODrcaeQDymi-177">
          <mxGeometry relative="1" as="geometry">
            <mxPoint x="608" y="-1417" as="sourcePoint" />
            <mxPoint x="563" y="-1433" as="targetPoint" />
          </mxGeometry>
        </mxCell>
        <mxCell id="3PmhoJ4yJODrcaeQDymi-181" value="" style="fontSize=12;html=1;endArrow=none;rounded=0;strokeWidth=2;fontColor=#FFFFFF;entryX=0.5;entryY=1;entryDx=0;entryDy=0;strokeColor=#7EA6E0;endFill=0;exitX=0.5;exitY=0;exitDx=0;exitDy=0;" edge="1" parent="1" source="Pxh_OKHmg_-3_lXB4SAX-9" target="1V2tR_OCei2J_slYglTm-9">
          <mxGeometry width="100" height="100" relative="1" as="geometry">
            <mxPoint x="1360" y="-1790" as="sourcePoint" />
            <mxPoint x="1193" y="-1560" as="targetPoint" />
          </mxGeometry>
        </mxCell>
      </root>
    </mxGraphModel>
  </diagram>
</mxfile>
